<?xml version="1.0" standalone="no"?>
<!DOCTYPE svg PUBLIC "-//W3C//DTD SVG 20010904//EN"
 "http://www.w3.org/TR/2001/REC-SVG-20010904/DTD/svg10.dtd">
<svg version="1.0" xmlns="http://www.w3.org/2000/svg"
 width="949.000000pt" height="949.000000pt" viewBox="0 0 949.000000 949.000000"
 preserveAspectRatio="xMidYMid meet">
<metadata>
Created by potrace 1.14, written by Peter Selinger 2001-2017
</metadata>
<g transform="translate(0.000000,949.000000) scale(0.100000,-0.100000)"
fill="#000000" stroke="none">
<path d="M5795 8090 c-18 -8 -17 -9 8 -9 15 -1 27 4 27 9 0 12 -8 12 -35 0z"/>
<path d="M5596 8069 c-81 -12 -82 -19 -4 -19 51 0 65 3 65 15 0 8 -1 14 -1 14
-1 -1 -28 -5 -60 -10z"/>
<path d="M5674 8073 c7 -7 77 -5 85 3 2 2 -17 4 -44 4 -27 0 -45 -3 -41 -7z"/>
<path d="M5778 8052 c-21 -2 -38 -7 -38 -13 0 -5 5 -9 12 -9 16 0 1 -13 -20
-17 -9 -1 -69 -9 -132 -17 -129 -17 -215 -33 -245 -46 -11 -5 -53 -20 -92 -34
-131 -46 -251 -121 -363 -227 -36 -33 -56 -55 -45 -48 11 8 31 24 45 37 82 76
359 233 406 231 12 0 8 -4 -11 -11 -44 -16 -145 -79 -140 -88 3 -4 -2 -11 -11
-14 -9 -3 -12 -2 -9 5 7 10 -76 -41 -160 -100 -63 -44 -76 -56 -50 -47 14 5
11 -1 -10 -18 -38 -32 -24 -34 18 -2 32 23 146 88 202 113 17 8 39 19 50 25
24 13 115 38 115 32 0 -3 -26 -16 -57 -30 -83 -35 -207 -98 -214 -107 -3 -5
-9 -7 -12 -5 -6 3 -84 -54 -129 -94 -151 -137 -188 -175 -188 -193 0 -16 -2
-17 -10 -5 -9 13 -14 7 -11 -12 0 -5 -4 -7 -11 -5 -7 1 -12 -3 -13 -9 0 -7
-11 -22 -25 -34 -28 -25 26 14 150 108 107 81 115 86 117 62 1 -12 -25 -39
-73 -77 -41 -32 -74 -61 -74 -64 0 -4 -28 -30 -62 -57 -70 -55 -160 -141 -198
-187 l-25 -30 26 23 c14 12 28 20 31 17 3 -3 19 10 37 30 28 32 36 35 32 13 0
-4 15 2 34 13 19 11 42 19 50 17 11 -2 3 -10 -22 -23 -21 -11 -41 -24 -45 -30
-4 -5 -8 -7 -8 -3 0 4 -14 -7 -31 -25 -17 -17 -35 -32 -39 -32 -15 0 -70 -55
-70 -70 0 -8 -9 -19 -20 -25 -11 -6 -18 -15 -15 -21 4 -5 -1 -9 -9 -9 -8 0
-17 -9 -21 -19 -3 -11 -12 -18 -20 -15 -7 3 -16 1 -20 -5 -11 -19 -14 -51 -4
-51 5 0 9 5 9 10 0 6 18 26 40 46 22 20 37 40 34 45 -3 5 1 9 8 9 7 0 24 13
38 30 16 19 27 25 31 18 4 -6 -3 -20 -14 -30 -12 -10 2 -4 31 14 130 82 190
112 213 109 9 -1 22 5 29 14 13 16 30 20 30 7 0 -4 -27 -21 -60 -37 -33 -17
-60 -34 -60 -38 0 -4 9 -3 19 3 11 5 23 10 28 10 23 -2 -57 -34 -84 -35 -18
-1 -36 -5 -40 -9 -4 -5 3 -5 16 -1 16 5 21 4 17 -4 -4 -6 -12 -11 -18 -11 -10
0 -178 -118 -178 -125 0 -2 16 3 35 11 39 16 80 20 56 5 -11 -7 -11 -9 0 -13
8 -3 -1 -10 -20 -15 -19 -5 -37 -15 -39 -23 -3 -9 1 -11 12 -7 27 10 18 0 -19
-23 -19 -12 -33 -26 -30 -31 4 -5 -2 -6 -11 -2 -12 4 -15 3 -10 -5 5 -8 2 -10
-8 -6 -9 3 -16 2 -16 -4 0 -5 -8 -13 -17 -17 -11 -4 -7 5 11 24 17 17 36 31
43 31 8 0 12 4 9 9 -9 15 -44 1 -60 -24 -8 -12 -21 -28 -28 -36 -12 -13 -21
-49 -12 -49 3 0 15 7 27 14 28 19 97 48 97 41 0 -2 -15 -11 -32 -19 -33 -14
-81 -54 -107 -91 -8 -11 5 -1 30 23 25 23 54 42 65 42 26 0 81 -56 62 -62 -10
-4 -10 -11 4 -34 9 -16 19 -51 23 -79 4 -27 16 -68 27 -89 16 -31 18 -44 9
-63 -14 -32 -15 -31 14 -25 14 2 22 8 19 13 -3 5 -1 9 4 9 5 0 12 -9 15 -19 8
-32 80 -60 142 -57 36 2 52 0 48 -7 -4 -6 10 2 30 17 20 16 35 32 32 36 -3 4
11 17 30 29 29 17 34 25 31 51 -3 24 0 30 15 30 10 0 21 5 24 10 10 16 82 60
98 60 8 0 26 11 41 25 15 14 32 23 37 20 5 -4 9 -2 9 2 0 5 14 14 30 20 36 13
36 10 10 -54 l-20 -48 20 25 20 25 -19 -50 c-11 -27 -42 -93 -70 -145 -28 -52
-51 -97 -51 -101 0 -4 -16 -35 -35 -69 -19 -34 -35 -66 -35 -72 0 -6 -7 -8
-15 -4 -14 5 -17 2 -19 -26 -1 -7 -8 -21 -17 -31 -14 -15 -15 -26 -8 -53 8
-26 6 -40 -6 -61 -16 -28 -16 -11 0 32 6 15 2 13 -13 -7 -12 -14 -22 -33 -22
-41 0 -17 -40 -118 -52 -131 -5 -6 -8 -5 -8 3 0 7 -4 9 -10 6 -5 -3 -10 -25
-11 -48 0 -48 -33 -139 -42 -116 -3 8 -5 -4 -4 -26 0 -50 -31 -210 -49 -250
-8 -19 -9 -31 -3 -34 15 -5 19 2 25 48 7 48 42 174 43 151 0 -8 -4 -35 -9 -60
-13 -70 1 -69 26 1 13 35 28 65 34 67 5 2 10 15 10 28 0 27 20 34 21 7 0 -15
2 -15 8 2 5 11 7 23 5 26 -5 9 52 126 65 133 6 4 8 13 5 20 -3 7 2 19 11 26 8
7 15 19 15 26 0 8 5 14 10 14 12 0 13 7 -10 -69 -21 -67 -22 -96 -1 -39 7 18
19 47 28 63 9 17 21 40 27 52 10 20 25 28 49 24 4 -1 35 19 70 44 34 25 72 48
85 51 12 4 22 10 22 15 0 5 8 9 19 9 10 0 30 9 44 20 31 25 56 17 64 -21 3
-18 12 -29 22 -29 9 0 35 -17 57 -38 117 -106 152 -133 189 -146 49 -17 163
-43 231 -52 59 -7 65 0 62 68 -1 26 6 45 25 68 15 17 27 36 27 41 0 5 5 9 10
9 6 0 9 -12 8 -27 -2 -22 1 -28 17 -28 11 0 24 10 30 22 9 17 14 20 23 11 9
-9 12 -9 12 1 0 7 4 10 9 6 6 -3 13 16 17 42 6 40 8 44 15 25 5 -12 13 -22 18
-22 10 0 45 -65 46 -85 2 -23 19 -71 30 -81 7 -8 17 -9 28 -2 13 7 17 5 17 -6
0 -14 36 -46 52 -46 5 0 8 7 8 15 0 17 25 20 35 5 11 -18 24 -10 45 28 20 36
21 36 16 7 -3 -16 -8 -41 -12 -55 l-6 -25 23 25 c22 24 22 25 16 3 -10 -44 12
-23 27 25 l15 47 -6 -47 c-3 -32 -2 -48 6 -48 6 0 11 8 12 18 1 11 4 9 9 -8 8
-25 8 -25 10 5 l2 30 10 -30 c10 -27 12 -28 20 -10 6 14 7 8 3 -17 -4 -29 -2
-37 11 -40 13 -2 10 -7 -12 -18 -41 -21 -73 -61 -74 -90 0 -45 163 -140 268
-156 15 -2 60 -4 100 -4 69 1 76 3 101 31 23 25 37 31 84 34 62 5 61 7 38 -69
-5 -17 -8 -44 -6 -61 1 -16 -2 -33 -7 -36 -5 -3 -3 -9 5 -12 11 -4 17 4 22 29
3 19 4 38 1 43 -3 5 0 21 8 36 8 15 12 35 9 44 -4 9 -2 13 2 8 15 -13 95 48
95 73 0 18 81 139 94 140 4 0 5 -7 2 -16 -3 -8 -2 -12 4 -9 6 3 10 18 10 33 0
21 2 24 10 12 7 -12 10 -8 11 15 0 25 2 27 8 10 l8 -20 6 20 c4 14 5 12 3 -5
-5 -34 -29 -93 -41 -102 -6 -5 -6 -8 2 -8 11 0 -20 -105 -38 -124 -5 -6 -9
-22 -9 -36 0 -14 -6 -32 -12 -39 -11 -11 -10 -13 0 -7 7 4 19 24 28 44 21 50
35 56 56 24 l18 -27 1 35 1 35 8 -30 8 -30 2 30 c1 17 2 36 1 43 -1 6 6 12 15
12 10 0 14 -5 11 -15 -4 -8 -2 -17 4 -21 6 -3 9 11 8 38 -3 49 9 80 21 57 9
-19 -8 -262 -19 -269 -5 -3 -12 -32 -15 -65 -4 -40 -3 -52 3 -35 5 14 9 40 10
58 1 17 6 32 12 32 17 0 4 -128 -25 -258 -34 -147 -38 -168 -42 -242 -5 -87
-5 -93 -15 -106 -5 -6 -15 -29 -23 -52 -11 -31 -12 -42 -3 -42 7 0 5 -6 -5
-14 -10 -7 -15 -16 -11 -19 3 -4 1 -7 -6 -7 -9 0 -9 -5 -1 -20 8 -15 4 -33
-23 -87 -18 -37 -37 -67 -43 -66 -5 1 -16 -7 -23 -19 -7 -11 -8 -17 -2 -13 6
3 11 1 11 -4 0 -6 -7 -11 -15 -11 -8 0 -15 -7 -15 -16 0 -20 -31 -87 -44 -96
-6 -4 -8 -8 -3 -8 4 0 -1 -12 -10 -27 -10 -15 -12 -24 -5 -20 18 12 15 -1 -9
-40 -28 -45 -17 -54 13 -10 13 19 56 82 96 141 39 58 72 109 72 113 0 4 8 16
19 27 10 12 35 59 56 106 21 47 41 90 45 95 3 6 6 25 4 43 -1 21 3 32 12 32
15 0 34 30 34 55 0 9 11 40 23 68 42 92 71 291 88 597 5 102 14 228 18 280 12
129 1 536 -15 562 -3 4 -2 8 3 8 4 0 9 48 9 107 1 60 3 131 4 158 2 28 0 60
-4 73 -5 13 -3 22 3 22 6 0 11 5 11 11 0 5 -4 7 -10 4 -6 -4 -10 16 -10 54 0
85 -38 230 -68 258 -13 12 -25 28 -26 36 -1 8 -8 23 -16 33 -9 11 -10 15 -2
10 17 -10 15 9 -3 24 -8 7 -15 18 -15 26 0 7 -9 19 -21 27 -13 10 -16 16 -8
19 8 3 7 8 -4 20 -9 8 -13 19 -9 22 3 4 -1 4 -11 0 -10 -3 -17 -1 -17 5 0 6 5
11 10 11 6 0 -6 30 -26 68 -19 37 -37 76 -40 86 -4 23 -44 67 -54 61 -4 -2
-22 14 -39 36 -24 30 -36 37 -45 30 -9 -8 -18 -6 -30 8 -12 13 -14 21 -6 26 6
4 14 4 17 1 4 -3 1 -6 -7 -6 -10 0 -10 -3 0 -15 17 -21 32 -8 19 16 -7 14 -16
18 -30 14 -15 -5 -31 5 -66 39 -25 25 -49 46 -53 46 -4 0 -11 7 -14 16 -3 8
-2 12 4 9 6 -3 10 -1 10 5 0 6 -10 15 -22 20 -14 5 -17 9 -8 9 9 1 33 -13 54
-31 36 -29 39 -30 34 -10 -4 12 -2 22 4 22 5 0 7 4 3 10 -3 5 -12 7 -20 4 -7
-3 -25 2 -39 11 -14 10 -26 14 -26 9 0 -4 -10 2 -22 13 -32 29 -106 65 -112
54 -3 -5 1 -12 10 -15 8 -3 12 -11 8 -17 -4 -8 -3 -9 4 -5 7 4 24 -5 39 -19
l28 -27 -42 21 c-24 12 -43 27 -43 33 0 6 -3 8 -7 5 -3 -4 -11 0 -17 8 -6 8
-27 17 -46 20 -35 5 -35 5 -7 -7 15 -7 26 -16 24 -22 -2 -5 5 -18 16 -29 10
-10 16 -22 12 -25 -3 -4 -10 0 -15 8 -5 8 -11 12 -14 9 -3 -3 6 -18 21 -33 21
-22 23 -30 12 -37 -10 -6 -18 -1 -26 16 -7 13 -22 27 -33 30 -11 4 -18 11 -15
16 4 5 1 17 -5 26 -10 16 -11 16 -7 -3 3 -12 1 -28 -4 -35 -5 -8 -3 -17 4 -21
8 -5 6 -8 -7 -8 -16 0 -17 5 -11 46 5 34 3 49 -7 55 -19 12 -30 11 -22 -3 11
-17 13 -179 3 -172 -13 8 -11 -10 2 -23 9 -9 5 -20 -12 -45 l-24 -33 -3 31
c-3 27 -6 31 -30 27 -15 -1 -21 0 -14 3 6 3 12 14 12 25 0 18 -1 18 -20 -1
-11 -11 -20 -24 -20 -30 0 -5 -5 -10 -11 -10 -7 0 -10 15 -7 40 l3 39 -32 -5
c-23 -4 -33 -1 -33 8 0 10 -3 9 -11 -2 -8 -11 -9 -9 -3 10 4 14 7 30 7 37 0 7
4 10 8 8 3 -3 12 1 18 9 9 11 6 12 -15 8 -19 -3 -25 -1 -20 7 9 14 0 14 -27
-1 -20 -10 -21 -10 -8 5 15 19 8 22 -20 7 -13 -7 -19 -7 -19 -1 0 7 -8 7 -23
2 -18 -7 -23 -6 -23 9 0 10 3 17 7 14 4 -2 12 3 18 10 10 12 7 15 -16 18 -33
4 -34 21 -1 29 13 3 22 11 20 17 -1 7 1 11 5 11 5 -1 19 -1 32 0 24 1 24 2 6
15 -19 14 -19 15 -1 35 19 21 19 21 -12 15 -40 -8 -43 10 -4 24 l27 10 -34 -1
c-21 0 -39 6 -47 18 -8 11 -19 15 -31 11 -12 -5 -15 -4 -8 3 6 5 30 11 55 13
35 3 40 5 20 10 -161 39 -251 58 -277 58 -20 0 -33 5 -33 13 0 9 -2 9 -8 0 -9
-14 -40 -16 -156 -15 -120 3 -101 16 27 21 16 1 26 4 24 9 -3 4 24 7 59 7 44
0 64 -4 64 -12 0 -12 86 -10 150 3 19 3 22 2 10 -6 -11 -7 0 -10 42 -9 32 1
55 6 52 11 -3 5 -22 6 -42 3 l-37 -5 30 15 30 14 -52 1 c-28 0 -55 -5 -58 -10
-7 -12 -25 -4 -25 11 0 5 9 9 21 9 11 0 18 4 15 9 -4 6 -20 5 -42 -1 -20 -5
-38 -7 -42 -4 -3 3 0 6 6 6 7 0 12 4 12 9 0 9 -26 14 -120 25 -19 3 -67 11
-106 20 -65 14 -112 16 -206 8z m70 -39 c-16 -2 -40 -2 -55 0 -16 2 -3 4 27 4
30 0 43 -2 28 -4z m-108 -25 c0 -4 -17 -8 -37 -8 -23 0 -33 4 -26 8 17 10 63
10 63 0z m-93 -14 c-3 -3 -12 -4 -19 -1 -8 3 -5 6 6 6 11 1 17 -2 13 -5z m-54
-11 c-7 -2 -19 -2 -25 0 -7 3 -2 5 12 5 14 0 19 -2 13 -5z m-56 -9 c-3 -3 -12
-4 -19 -1 -8 3 -5 6 6 6 11 1 17 -2 13 -5z m281 -11 c-10 -2 -26 -2 -35 0 -10
3 -2 5 17 5 19 0 27 -2 18 -5z m-383 -23 c-11 -5 -40 -8 -65 -8 l-45 1 45 7
c25 4 54 7 65 8 l20 1 -20 -9z m378 -7 c-7 -2 -19 -2 -25 0 -7 3 -2 5 12 5 14
0 19 -2 13 -5z m-60 -10 c-7 -2 -21 -2 -30 0 -10 3 -4 5 12 5 17 0 24 -2 18
-5z m172 -3 c3 -5 -1 -10 -9 -10 -8 0 -18 5 -21 10 -3 6 1 10 9 10 8 0 18 -4
21 -10z m-302 -17 c-7 -2 -21 -2 -30 0 -10 3 -4 5 12 5 17 0 24 -2 18 -5z
m-83 -13 c-8 -5 -22 -9 -30 -9 -10 0 -8 3 5 9 27 12 43 12 25 0z m-329 -40
c-13 -11 -28 -20 -35 -20 -6 0 3 9 19 20 38 25 47 25 16 0z m134 -10 c-3 -5
-12 -10 -18 -10 -7 0 -6 4 3 10 19 12 23 12 15 0z m-243 -68 c-13 -10 -40 -27
-60 -37 -21 -11 -50 -28 -65 -38 -16 -11 -30 -17 -33 -14 -6 6 111 77 127 77
5 0 9 4 9 9 0 8 14 15 40 20 3 0 -6 -8 -18 -17z m1323 8 c4 -6 -9 -10 -32 -9
-34 1 -35 2 -13 9 35 11 38 11 45 0z m-1410 -170 c-3 -5 -12 -10 -18 -10 -7 0
-6 4 3 10 19 12 23 12 15 0z m-11 -55 c-71 -51 -84 -58 -84 -45 0 12 99 79
119 79 7 1 -9 -15 -35 -34z m1996 -2 c35 -37 24 -37 -17 0 -20 17 -30 37 -20
37 1 0 18 -17 37 -37z m-245 7 c3 -5 1 -10 -4 -10 -6 0 -11 5 -11 10 0 6 2 10
4 10 3 0 8 -4 11 -10z m180 -50 c10 -11 13 -20 7 -20 -6 0 -16 9 -22 20 -6 11
-9 20 -7 20 2 0 12 -9 22 -20z m229 -150 c-6 -5 -24 21 -24 34 0 6 6 1 14 -10
8 -10 12 -21 10 -24z m36 -32 c0 -13 -23 -5 -28 10 -2 7 2 10 12 6 9 -3 16
-11 16 -16z m83 -48 c39 -53 43 -60 27 -60 -5 0 -10 6 -10 14 0 8 -10 23 -22
33 -13 10 -24 25 -26 33 -2 8 -9 18 -15 22 -7 5 -8 8 -2 8 6 0 27 -22 48 -50z
m-2508 30 c-3 -5 -12 -10 -18 -10 -7 0 -6 4 3 10 19 12 23 12 15 0z m2540 -10
c3 -5 1 -10 -4 -10 -6 0 -11 5 -11 10 0 6 2 10 4 10 3 0 8 -4 11 -10z m-2591
-21 c-19 -22 -19 -22 6 -15 14 4 3 -5 -25 -20 -27 -15 -52 -27 -55 -26 -3 0
-13 -7 -23 -15 -9 -9 -19 -14 -22 -11 -4 4 123 106 134 107 2 1 -4 -9 -15 -20z
m2506 13 c0 -5 18 -28 40 -53 22 -24 40 -49 40 -56 0 -6 6 -18 13 -25 6 -7 18
-25 26 -40 7 -14 19 -24 26 -22 7 3 16 1 20 -5 3 -7 0 -8 -9 -5 -18 7 -19 4
-10 -21 6 -13 9 -14 16 -3 7 10 8 10 6 -2 -2 -8 1 -15 6 -15 7 0 20 -22 31
-55 2 -6 15 -36 44 -102 21 -49 15 -61 -13 -32 -9 8 -16 32 -17 52 -1 32 -2
34 -8 12 -7 -23 -9 -22 -35 29 -15 30 -25 60 -22 67 3 7 -4 20 -14 29 -10 9
-22 30 -25 46 -4 16 -11 29 -16 29 -5 0 -9 5 -9 11 0 6 -13 28 -30 49 -16 21
-30 40 -30 43 0 3 -11 18 -25 33 -26 28 -32 44 -15 44 6 0 10 -4 10 -8z
m-2450 -36 c0 -2 -7 -7 -16 -10 -8 -3 -12 -2 -9 4 6 10 25 14 25 6z m-48 -23
c-6 -2 -10 -8 -7 -13 3 -4 -2 -10 -10 -14 -9 -3 -15 0 -15 8 0 14 15 24 35 24
6 0 4 -2 -3 -5z m188 -47 c0 -2 -7 -7 -16 -10 -8 -3 -12 -2 -9 4 6 10 25 14
25 6z m-360 -19 c0 -2 -10 -12 -22 -23 l-23 -19 19 23 c18 21 26 27 26 19z
m140 -7 c0 -5 -5 -10 -11 -10 -5 0 -7 5 -4 10 3 6 8 10 11 10 2 0 4 -4 4 -10z
m-73 -50 c-26 -17 -56 -39 -68 -51 -11 -11 -24 -18 -27 -14 -11 11 101 93 128
94 8 0 -6 -13 -33 -29z m143 -20 c-20 -13 -33 -13 -25 0 3 6 14 10 23 10 15 0
15 -2 2 -10z m2713 -303 c-7 -11 -23 12 -23 32 0 11 4 9 14 -4 8 -11 12 -24 9
-28z m-2983 -11 c0 -2 -7 -7 -16 -10 -8 -3 -12 -2 -9 4 6 10 25 14 25 6z
m2995 -16 c3 -5 1 -10 -4 -10 -6 0 -11 5 -11 10 0 6 2 10 4 10 3 0 8 -4 11
-10z m-2907 -10 c15 -1 15 -2 2 -9 -8 -5 -31 -8 -50 -6 -55 6 -57 7 -25 15 17
4 36 6 43 4 8 -2 21 -4 30 -4z m-82 -29 c-3 -4 6 -6 19 -3 16 3 25 0 25 -9 0
-9 3 -10 10 -3 8 8 21 7 45 0 40 -13 48 -31 9 -22 -14 4 -23 3 -20 -2 11 -18
-103 13 -121 33 -5 4 -2 5 5 1 6 -4 12 -2 12 3 0 6 5 11 11 11 5 0 8 -4 5 -9z
m3018 -80 c-7 -7 -12 3 -18 34 l-6 30 14 -30 c8 -16 12 -32 10 -34z m-1663
-65 c-17 -31 -27 -56 -23 -56 4 0 -2 -7 -12 -15 -11 -8 -16 -15 -12 -15 5 0 3
-6 -3 -14 -7 -8 -13 -28 -13 -45 -1 -17 -7 -36 -15 -42 -34 -29 1 83 57 179
49 85 64 91 21 8z m1679 32 c0 -7 3 -24 6 -38 4 -18 1 -16 -10 9 -19 39 -19
41 -6 41 6 0 10 -6 10 -12z m-2260 -149 c-7 -16 -16 -26 -21 -23 -5 3 -9 -4
-9 -15 0 -12 -4 -21 -9 -21 -5 0 -12 -11 -15 -25 -4 -14 -11 -25 -16 -25 -6 0
-10 -9 -10 -19 0 -16 -25 -36 -39 -31 -9 4 -20 -26 -16 -41 3 -8 -6 -26 -20
-39 -14 -13 -25 -27 -25 -31 0 -5 -13 -27 -29 -51 -16 -24 -48 -81 -72 -127
-24 -47 -45 -79 -47 -73 -2 7 7 29 19 49 13 20 22 47 21 59 -1 13 4 26 10 30
8 5 9 2 5 -10 -4 -10 -3 -15 4 -11 5 4 7 15 4 26 -4 13 -2 19 9 19 10 0 13 6
9 16 -3 9 3 21 16 30 11 8 21 23 21 32 0 9 10 33 21 52 12 19 23 44 24 55 4
34 5 35 18 35 6 0 22 18 34 39 13 22 32 42 43 46 11 4 18 10 15 15 -3 5 9 32
27 59 27 41 34 46 36 30 2 -12 -2 -34 -8 -50z m457 33 c-18 -42 -38 -72 -49
-72 -14 0 0 48 23 82 25 34 43 28 26 -10z m157 -19 c-14 -63 -55 -126 -67
-105 -3 4 1 19 8 33 8 13 21 38 29 54 24 51 40 60 30 18z m833 -35 c-2 -13 -4
-5 -4 17 -1 22 1 32 4 23 2 -10 2 -28 0 -40z m-10 -60 c-3 -8 -6 -5 -6 6 -1
11 2 17 5 13 3 -3 4 -12 1 -19z m-73 -75 c-7 -68 -35 -173 -41 -156 -4 11 20
148 33 196 10 35 14 16 8 -40z m73 5 c-3 -8 -6 -5 -6 6 -1 11 2 17 5 13 3 -3
4 -12 1 -19z m-1129 -12 c2 -3 1 -18 -3 -33 -5 -15 -9 -30 -9 -33 -1 -3 -11
-20 -24 -37 -18 -25 -20 -33 -9 -33 13 0 45 56 40 72 -1 3 4 8 11 11 10 4 12
-2 6 -26 -12 -50 -43 -109 -51 -96 -4 8 -11 4 -18 -10 -7 -11 -17 -21 -23 -21
-7 0 -6 5 2 15 7 9 8 15 2 15 -6 0 -21 -13 -35 -30 -25 -29 -77 -48 -77 -28 0
5 -7 8 -15 4 -18 -7 -19 13 -1 37 16 21 30 22 22 2 -10 -27 9 -16 28 16 11 18
14 29 8 26 -5 -4 -12 0 -16 8 -3 8 -1 15 4 15 6 0 10 6 10 14 0 8 11 23 25 34
14 11 25 24 25 28 0 5 12 20 28 34 24 23 55 30 70 16z m1181 -160 c1 -33 -1
-57 -4 -54 -3 3 -6 32 -6 64 -1 33 -5 61 -9 64 -5 3 -5 28 -2 55 l7 50 6 -60
c4 -33 7 -87 8 -119z m-1049 74 c0 -5 -5 -10 -11 -10 -5 0 -7 5 -4 10 3 6 8
10 11 10 2 0 4 -4 4 -10z m1017 -32 c-3 -8 -6 -5 -6 6 -1 11 2 17 5 13 3 -3 4
-12 1 -19z m-122 -94 c-4 -26 -9 -33 -15 -24 -8 13 8 75 17 66 3 -3 2 -22 -2
-42z m87 -23 c-5 -3 -12 -13 -15 -21 -4 -12 -6 -12 -6 2 -1 9 4 20 9 23 6 3
11 18 11 33 l2 27 4 -29 c3 -16 0 -32 -5 -35z m-1136 -128 c-3 -21 -6 -47 -6
-58 -1 -17 -5 -16 -30 13 -46 50 -39 79 19 81 22 1 23 -2 17 -36z m253 -72
c39 -55 19 -81 -56 -73 -47 5 -53 14 -23 35 10 7 24 25 29 40 13 35 25 34 50
-2z m-899 -11 c0 -5 -2 -10 -4 -10 -3 0 -8 5 -11 10 -3 6 -1 10 4 10 6 0 11
-4 11 -10z m2507 -182 c-3 -8 -6 -5 -6 6 -1 11 2 17 5 13 3 -3 4 -12 1 -19z
m-2607 -9 c0 -11 -4 -18 -10 -14 -5 3 -7 12 -3 20 7 21 13 19 13 -6z m50 1 c0
-5 -4 -10 -10 -10 -5 0 -10 5 -10 10 0 6 5 10 10 10 6 0 10 -4 10 -10z m2557
-72 c-2 -13 -4 -5 -4 17 -1 22 1 32 4 23 2 -10 2 -28 0 -40z m-2607 27 c5 3 4
-8 -1 -25 -6 -16 -15 -33 -21 -36 -6 -4 -5 3 2 15 6 12 9 32 6 44 -3 12 -3 16
0 9 3 -6 10 -10 14 -7z m-34 -41 c-7 -19 -26 -18 -26 2 0 8 5 12 10 9 6 -3 11
4 11 17 1 18 2 19 6 5 3 -10 2 -25 -1 -33z m1988 -20 c9 -3 24 -22 33 -42 17
-35 16 -35 -11 -58 -27 -24 -72 -30 -109 -15 -17 6 -16 8 8 21 27 15 55 57 55
85 0 17 2 18 24 9z m583 -76 c-3 -7 -5 -2 -5 12 0 14 2 19 5 13 2 -7 2 -19 0
-25z m80 -340 c-3 -8 -6 -5 -6 6 -1 11 2 17 5 13 3 -3 4 -12 1 -19z m-46 -259
c-5 -13 -10 -19 -10 -12 -1 15 10 45 15 40 3 -2 0 -15 -5 -28z m42 -94 c-3 -9
-8 -14 -10 -11 -3 3 -2 9 2 15 9 16 15 13 8 -4z m-16 -57 c-3 -8 -6 -5 -6 6
-1 11 2 17 5 13 3 -3 4 -12 1 -19z m-27 -5 c0 -5 -5 -15 -10 -23 -7 -12 -9
-10 -7 8 1 19 17 33 17 15z m17 -62 c-1 -29 -5 -44 -10 -38 -5 7 -7 3 -4 -11
3 -12 1 -20 -3 -17 -9 5 -30 -48 -30 -75 0 -23 -61 -140 -73 -140 -6 0 -6 5 0
13 5 6 15 32 23 57 7 25 28 88 47 140 18 52 36 101 38 108 9 26 14 10 12 -37z
m-47 -33 c-1 -7 -7 -24 -15 -38 -10 -18 -14 -20 -15 -8 0 9 5 20 11 23 6 4 8
13 5 21 -3 8 -1 14 4 14 6 0 10 -6 10 -12z"/>
<path d="M7410 6953 c0 -14 19 -38 25 -32 8 8 -5 39 -16 39 -5 0 -9 -3 -9 -7z"/>
<path d="M5555 8028 c-38 -5 -92 -15 -120 -23 -45 -13 -46 -14 -10 -9 22 4 67
7 101 9 101 4 206 17 199 24 -9 8 -84 8 -170 -1z"/>
<path d="M6318 7903 c7 -3 16 -2 19 1 4 3 -2 6 -13 5 -11 0 -14 -3 -6 -6z"/>
<path d="M6485 7750 c-3 -6 1 -7 9 -4 18 7 21 14 7 14 -6 0 -13 -4 -16 -10z"/>
<path d="M6631 7724 c0 -11 3 -14 6 -6 3 7 2 16 -1 19 -3 4 -6 -2 -5 -13z"/>
<path d="M6685 7730 c-3 -5 -2 -10 4 -10 5 0 13 5 16 10 3 6 2 10 -4 10 -5 0
-13 -4 -16 -10z"/>
<path d="M6760 7699 c0 -5 5 -7 10 -4 6 3 10 8 10 11 0 2 -4 4 -10 4 -5 0 -10
-5 -10 -11z"/>
<path d="M6666 7682 c-2 -4 -1 -14 4 -22 7 -11 9 -9 7 8 -1 24 -3 26 -11 14z"/>
<path d="M6922 7684 c14 -14 118 -61 108 -48 -7 7 -19 14 -26 14 -8 0 -14 4
-14 8 0 5 -16 14 -36 20 -20 6 -34 9 -32 6z"/>
<path d="M4843 7583 c4 -6 -10 -25 -31 -43 -20 -17 -28 -27 -17 -21 34 16 68
58 54 66 -7 5 -10 4 -6 -2z"/>
<path d="M6665 7559 c-4 -6 -5 -12 -2 -15 2 -3 7 2 10 11 7 17 1 20 -8 4z"/>
<path d="M7040 7550 c0 -5 5 -10 11 -10 5 0 7 5 4 10 -3 6 -8 10 -11 10 -2 0
-4 -4 -4 -10z"/>
<path d="M7103 7540 c-1 -11 2 -18 7 -15 4 3 11 -2 14 -11 3 -8 10 -13 15 -10
5 3 14 -1 21 -9 7 -8 9 -15 6 -15 -4 0 13 -18 38 -39 25 -21 42 -42 38 -47 -4
-4 -2 -4 4 -1 12 7 32 -10 33 -28 1 -5 4 -10 9 -10 4 0 12 -3 18 -7 7 -5 10 1
6 17 -2 14 -8 23 -12 20 -4 -3 -7 3 -6 12 0 9 -5 18 -13 21 -9 3 -11 0 -6 -9
4 -8 -30 23 -76 69 -47 45 -87 82 -90 82 -2 0 -5 -9 -6 -20z"/>
<path d="M4725 7490 c-10 -11 -16 -22 -14 -24 2 -2 12 7 22 20 22 29 17 32 -8
4z"/>
<path d="M7240 7452 c6 -13 14 -21 18 -18 3 4 -2 14 -12 24 -18 16 -18 16 -6
-6z"/>
<path d="M4836 7445 c-11 -8 -17 -17 -14 -20 2 -3 13 4 23 15 21 23 18 25 -9
5z"/>
<path d="M7340 7265 c0 -4 10 -24 23 -44 38 -62 41 -67 69 -119 25 -46 48 -73
48 -57 0 9 -33 68 -41 75 -4 3 -13 21 -22 40 -14 35 -77 120 -77 105z"/>
<path d="M4449 7043 c-13 -16 -12 -17 4 -4 9 7 17 15 17 17 0 8 -8 3 -21 -13z"/>
<path d="M7483 7006 c4 -10 7 -22 7 -27 0 -5 4 -9 9 -9 12 0 2 38 -12 47 -7 4
-8 0 -4 -11z"/>
<path d="M4404 6976 c-36 -36 -39 -53 -3 -19 18 18 31 34 28 36 -2 3 -13 -5
-25 -17z"/>
<path d="M5115 6450 c-9 -16 -11 -30 -6 -30 5 0 14 14 20 30 5 17 8 30 6 30
-3 0 -11 -13 -20 -30z"/>
<path d="M9055 6420 c-3 -5 -17 -10 -29 -10 -16 0 -26 -7 -29 -22 -7 -25 2
-46 13 -28 4 6 13 13 21 14 29 6 49 19 49 31 0 18 -17 28 -25 15z"/>
<path d="M5082 6393 c-16 -29 -52 -126 -48 -130 1 -2 17 29 35 68 18 39 30 73
27 76 -2 3 -9 -4 -14 -14z"/>
<path d="M4290 6368 c-8 -13 -15 -27 -15 -33 -1 -5 -12 -32 -25 -58 -21 -41
-22 -50 -10 -57 13 -8 12 -10 -2 -10 -14 0 -16 -10 -14 -58 2 -67 9 -82 39
-83 17 -1 18 -2 5 -6 -20 -5 -23 -18 -8 -28 6 -4 7 -13 1 -23 -4 -9 -6 -23 -4
-29 3 -7 0 -13 -6 -13 -6 0 -11 -5 -11 -10 0 -23 -84 -110 -106 -110 -14 0
-15 2 -3 17 12 14 12 16 -1 11 -8 -3 -26 -1 -40 3 -21 8 -23 7 -10 -4 8 -7 20
-21 26 -32 7 -11 20 -19 29 -18 13 1 14 -2 6 -10 -9 -9 -17 -8 -32 1 -12 8
-18 9 -14 3 3 -6 0 -11 -7 -11 -10 0 -9 -3 1 -9 12 -8 12 -12 2 -24 -10 -13
-9 -19 6 -36 9 -12 23 -21 29 -21 13 0 24 -23 23 -48 0 -11 -6 -6 -15 13 l-15
30 6 -28 c8 -40 -9 -64 -52 -72 -58 -12 -73 -12 -66 -2 4 6 -4 7 -19 4 -21 -6
-26 -2 -37 31 -17 46 -80 107 -95 92 -7 -7 -5 -10 8 -10 13 0 16 -5 11 -21 -5
-15 -4 -19 4 -15 7 5 10 -4 7 -26 -2 -19 -9 -32 -16 -30 -6 1 -9 -2 -5 -8 7
-11 -17 -40 -33 -40 -5 0 -12 17 -16 38 -4 26 -15 45 -36 60 -23 18 -30 19
-30 8 0 -10 -6 -13 -17 -9 -16 6 -16 4 1 -15 18 -21 18 -22 0 -59 -21 -44 -28
-137 -12 -167 6 -11 12 -32 13 -46 4 -58 5 -59 21 -53 13 5 13 8 2 15 -9 7 -7
8 9 5 12 -3 22 -2 21 2 -2 20 5 27 28 29 19 1 25 -2 21 -12 -7 -17 30 -29 37
-12 2 6 5 1 5 -11 1 -13 -3 -23 -7 -23 -4 0 -8 -9 -8 -20 0 -11 3 -20 7 -20 3
0 6 -27 6 -60 0 -33 -3 -60 -7 -60 -3 0 -7 -12 -8 -27 -1 -16 -4 -37 -6 -48
-3 -11 -5 -28 -5 -37 -1 -10 -6 -18 -12 -18 -5 0 -7 5 -3 12 5 7 3 8 -5 3 -10
-6 -9 -11 3 -23 14 -14 13 -17 -6 -34 -15 -12 -17 -18 -7 -19 8 0 3 -5 -11
-10 l-25 -10 25 -14 c14 -8 19 -14 12 -15 -7 0 -10 -4 -7 -10 3 -5 2 -10 -4
-10 -5 0 -8 -9 -6 -20 3 -16 -2 -20 -23 -21 -23 -1 -24 -2 -7 -7 23 -8 32 -32
12 -32 -18 0 -16 -42 3 -58 8 -8 9 -11 3 -7 -8 4 -13 0 -13 -9 0 -8 -7 -19
-16 -24 -12 -7 -15 -17 -11 -33 5 -22 5 -22 -7 -6 -7 9 -18 17 -25 17 -6 0
-11 5 -11 10 0 6 -5 10 -11 10 -6 0 -8 -11 -5 -27 3 -16 8 -98 11 -183 10
-253 34 -518 59 -666 25 -143 62 -318 72 -344 3 -8 8 -27 10 -42 2 -16 6 -43
9 -60 3 -18 8 -50 12 -70 6 -40 26 -50 38 -21 5 14 10 9 24 -22 12 -28 15 -42
7 -47 -7 -5 -5 -8 5 -8 15 0 21 -11 34 -55 2 -5 8 -39 15 -74 6 -36 20 -81 30
-101 28 -54 42 -118 46 -202 2 -56 0 -78 -9 -78 -8 0 -8 -3 2 -9 10 -7 11 -13
1 -31 -9 -17 -9 -25 3 -38 15 -18 25 -56 34 -134 5 -49 10 -53 58 -50 20 2 20
2 1 -13 -11 -8 -14 -15 -7 -15 7 0 10 -4 6 -9 -3 -5 -1 -12 5 -16 6 -4 7 -11
4 -17 -5 -7 -2 -8 5 -3 10 5 12 -2 8 -29 -4 -30 -2 -36 13 -36 36 0 42 -29 26
-135 -3 -22 -15 -48 -27 -57 -18 -16 -19 -19 -6 -45 8 -15 20 -48 27 -71 7
-28 16 -42 24 -39 7 3 27 -6 44 -20 33 -25 42 -57 20 -67 -7 -4 -4 -5 8 -3 18
4 20 0 17 -34 -2 -22 2 -39 7 -39 6 0 10 -7 10 -16 0 -8 4 -12 10 -9 6 4 11
-6 11 -22 1 -17 3 -21 6 -10 5 20 8 20 34 7 19 -11 20 -37 3 -92 -3 -9 0 -19
6 -23 5 -3 10 -14 10 -23 0 -9 14 -37 30 -61 31 -45 58 -126 81 -240 11 -58
11 -65 -5 -77 -16 -11 -16 -13 3 -19 12 -3 21 -12 21 -19 0 -17 41 -146 46
-146 2 0 1 12 -2 27 -11 45 2 23 25 -43 23 -66 29 -110 10 -84 -8 11 -9 9 -3
-10 4 -14 11 -27 15 -28 5 -2 7 -8 3 -13 -3 -5 0 -9 5 -9 7 0 9 15 6 38 l-5
37 14 -32 c8 -17 12 -40 9 -51 -2 -11 3 -34 11 -51 9 -17 12 -31 7 -31 -6 0
-8 -7 -5 -15 4 -8 11 -12 17 -8 6 4 8 0 4 -10 -3 -9 -1 -19 5 -23 8 -5 9 3 5
26 -6 28 -5 31 8 20 9 -7 15 -20 14 -29 -1 -9 -1 -23 0 -31 1 -13 2 -13 12 0
8 11 9 9 4 -10 -11 -40 -11 -42 8 -45 14 -3 17 1 12 18 -5 18 -4 19 4 7 6 -8
9 -26 6 -40 -6 -31 10 -60 55 -96 32 -26 33 -26 15 -4 -11 14 -26 29 -33 33
-7 5 -9 13 -6 19 4 7 2 8 -4 4 -8 -5 -12 0 -12 13 0 12 2 21 5 21 2 0 23 -28
46 -61 23 -34 37 -59 30 -55 -19 12 -12 -10 9 -29 11 -10 17 -22 13 -28 -3 -6
-1 -7 5 -3 7 4 12 2 12 -4 0 -6 4 -9 9 -6 4 3 13 -6 20 -20 15 -34 13 -43 -5
-19 -8 11 -19 21 -24 21 -6 1 -12 3 -15 4 -3 1 -9 3 -14 4 -5 0 -20 13 -34 28
-14 15 -27 23 -29 18 -2 -6 -20 6 -41 26 -20 20 -37 33 -37 30 0 -16 -290 222
-298 245 -2 5 -9 9 -16 9 -17 0 -46 32 -46 51 0 8 -11 24 -24 36 l-23 23 2
-43 c4 -84 35 -164 79 -206 69 -66 99 -91 106 -91 4 0 27 -19 53 -43 25 -24
62 -57 83 -73 20 -16 49 -38 63 -50 40 -32 139 -93 211 -131 36 -18 70 -39 75
-46 6 -7 23 -14 39 -15 16 -1 35 -7 42 -12 19 -17 75 -32 122 -35 23 -1 45 -5
48 -8 3 -3 26 -3 52 0 37 4 49 1 59 -14 11 -14 15 -15 22 -4 7 11 10 10 18 -4
8 -14 19 -16 54 -12 73 8 84 13 81 33 -7 35 -64 59 -75 32 -4 -10 -6 -10 -6 0
-1 6 -9 12 -19 12 -10 0 -27 7 -38 15 -10 8 -30 15 -44 16 -23 2 -23 2 5 9 29
7 28 8 -6 5 -23 -2 -36 2 -36 10 0 7 8 10 20 7 13 -3 18 -1 14 6 -4 5 -1 13 5
16 7 3 4 5 -7 5 -33 -2 -41 1 -27 10 11 7 11 11 -1 22 -7 8 -13 22 -11 31 1
11 -3 15 -14 11 -10 -4 -13 -2 -8 5 4 8 2 10 -8 6 -8 -3 -23 0 -33 6 -16 10
-16 11 -1 6 29 -9 29 11 0 29 -15 10 -48 39 -74 65 -27 26 -48 46 -48 45 0 -2
-15 11 -33 27 -17 17 -32 36 -32 43 0 6 -21 36 -46 66 -25 30 -55 74 -66 99
-77 167 -92 204 -86 214 3 6 2 8 -2 3 -8 -7 -65 93 -80 141 -4 13 -31 66 -60
118 -32 56 -52 102 -49 112 5 14 4 15 -5 2 -8 -11 -11 -11 -12 -2 -1 6 -2 15
-3 20 -1 4 -20 32 -42 62 -80 108 -84 122 -89 274 -2 87 -2 88 -38 122 -42 38
-43 42 -19 60 16 13 16 15 -3 29 -17 14 -18 19 -7 60 14 54 16 122 2 130 -11
7 -3 58 17 102 13 28 13 35 -2 63 -19 37 -14 62 12 54 15 -5 16 -4 3 6 -11 8
-12 13 -3 16 7 3 9 12 6 20 -3 7 -9 11 -14 8 -5 -3 -6 8 -3 24 4 19 -1 43 -15
69 -18 37 -19 43 -6 88 13 41 13 56 0 119 -8 39 -15 71 -15 72 0 0 24 16 53
34 28 19 54 38 55 42 2 4 10 8 18 8 8 0 14 5 14 10 0 6 6 10 13 8 7 -2 14 2
16 7 1 6 9 17 16 25 9 10 11 20 5 30 -8 13 -10 12 -10 -2 0 -10 -5 -18 -11
-18 -5 0 -7 5 -4 10 8 13 -25 26 -34 14 -3 -5 -26 -9 -50 -9 -38 0 -47 4 -62
29 -10 16 -15 34 -12 39 3 6 0 15 -8 21 -32 24 -60 84 -53 112 4 16 8 46 8 68
1 27 7 42 20 50 35 20 55 39 50 48 -3 4 2 11 10 14 9 3 14 10 11 15 -3 4 8 15
25 24 18 9 30 23 30 35 0 18 -1 18 -30 2 -16 -9 -30 -23 -30 -29 0 -7 -6 -13
-14 -13 -8 0 -16 -5 -18 -10 -2 -6 -14 -12 -27 -15 -28 -5 -40 -15 -20 -16 8
0 3 -5 -11 -10 -20 -8 -27 -6 -41 13 -10 12 -15 26 -13 29 2 4 -3 15 -12 23
-14 15 -14 16 0 16 9 0 16 6 16 14 0 8 7 17 16 20 8 3 12 10 9 16 -3 6 2 13
12 17 34 12 44 24 32 39 -9 12 -15 12 -27 2 -13 -10 -14 -10 -8 0 4 6 2 12 -3
12 -6 0 -11 -8 -11 -17 -1 -16 -2 -15 -12 2 -20 34 -17 52 9 53 13 0 23 -5 23
-10 0 -5 4 -7 9 -3 5 3 12 -4 16 -14 4 -12 12 -18 20 -14 8 3 12 9 9 14 -3 5
0 9 5 9 19 0 12 28 -9 33 -11 3 -20 1 -20 -4 0 -4 -7 -6 -16 -2 -11 4 -12 8
-4 13 8 5 8 14 0 34 -5 15 -6 25 -1 21 5 -3 12 3 16 14 3 10 20 26 38 35 l32
16 -41 -6 c-30 -4 -50 -1 -80 15 -21 12 -44 21 -51 21 -8 0 -13 12 -13 30 0
36 0 36 50 10 47 -24 86 -25 160 -5 30 8 76 15 101 15 51 0 208 31 309 60 36
10 92 24 126 30 81 14 130 39 183 94 l43 46 -27 10 c-32 12 -115 11 -115 -2 0
-5 -8 -5 -17 1 -11 6 -26 5 -42 -1 -38 -14 -94 -18 -108 -7 -7 7 -30 7 -65 1
-29 -6 -60 -6 -68 -2 -8 4 -26 6 -40 4 -19 -4 -35 5 -62 31 -21 20 -38 32 -38
26 0 -6 -10 0 -23 12 -13 12 -22 25 -20 30 2 4 -2 7 -11 7 -19 0 -58 82 -50
104 4 9 0 24 -8 34 -21 24 -48 82 -48 102 0 10 -6 23 -14 29 -24 20 -49 112
-52 186 -1 39 -8 90 -15 114 -9 32 -10 47 -2 61 8 12 8 21 1 28 -7 7 -7 21 0
44 6 18 14 52 17 76 4 23 11 42 16 42 6 0 8 4 5 9 -6 9 8 63 24 93 6 10 7 24
4 32 -3 8 -1 17 5 21 6 3 11 19 11 34 0 15 5 32 10 37 6 6 13 56 16 110 6 140
24 373 31 412 4 24 2 32 -8 30 -7 -2 -14 3 -15 10 -1 6 -2 17 -3 22 0 6 -12
10 -26 10 -14 0 -25 4 -25 10 0 5 -6 7 -14 4 -15 -6 -71 38 -87 68 -10 18 -69
226 -90 318 -6 25 -11 89 -11 143 1 53 0 97 -1 97 -1 0 -9 -10 -17 -22z m3
-213 c-3 -9 -8 -14 -10 -11 -3 3 -2 9 2 15 9 16 15 13 8 -4z m-63 -3765 c0 -5
-8 -14 -18 -19 -14 -7 -19 -6 -19 4 0 7 6 11 14 8 7 -3 13 0 13 6 0 6 2 11 5
11 3 0 5 -4 5 -10z m358 -1235 c0 -16 -2 -15 -8 5 -4 14 -8 34 -8 45 0 16 2
15 8 -5 4 -14 8 -34 8 -45z m130 -310 c-3 -3 -9 2 -12 12 -6 14 -5 15 5 6 7
-7 10 -15 7 -18z m502 -400 c-1 -4 4 -12 12 -16 11 -7 11 -9 -1 -9 -7 0 -22
11 -33 25 -11 14 -23 23 -27 21 -4 -3 -8 1 -8 9 0 12 6 11 30 -4 16 -10 28
-22 27 -26z m-190 -48 c0 -6 -9 -2 -20 8 -11 10 -20 23 -20 28 0 6 9 2 20 -8
11 -10 20 -23 20 -28z m115 -57 c71 -40 70 -38 62 -46 -3 -3 -31 11 -62 30
-31 20 -61 37 -68 39 -14 2 -36 28 -37 41 0 5 10 0 23 -11 12 -11 49 -35 82
-53z m119 21 c3 -4 -6 -6 -19 -3 -14 2 -25 6 -25 8 0 8 39 4 44 -5z m56 -25
c0 -3 -4 -8 -10 -11 -5 -3 -10 -1 -10 4 0 6 5 11 10 11 6 0 10 -2 10 -4z m-50
-51 c11 -13 8 -13 -19 -4 -35 12 -40 19 -12 19 10 0 24 -7 31 -15z m96 -25
c32 -11 63 -25 69 -31 7 -8 3 -8 -12 0 -12 6 -39 9 -60 6 -28 -4 -34 -3 -23 4
13 9 13 11 -1 11 -17 0 -60 29 -43 30 6 0 37 -9 70 -20z"/>
<path d="M4567 6343 c-13 -13 -7 -35 8 -29 10 3 15 -1 15 -12 0 -15 2 -15 10
-2 6 10 6 16 0 18 -6 2 -10 10 -10 18 0 15 -12 19 -23 7z"/>
<path d="M4063 6095 c0 -14 4 -25 9 -25 5 0 7 -4 3 -9 -3 -5 -1 -12 4 -16 6
-3 8 -12 4 -20 -3 -9 1 -15 11 -15 18 0 22 35 6 45 -6 4 -8 11 -5 16 4 5 2 9
-3 9 -6 0 -9 7 -8 16 0 9 -4 19 -10 21 -7 2 -11 -7 -11 -22z"/>
<path d="M4080 5983 c1 -18 18 -35 24 -24 4 6 4 16 1 21 -7 12 -25 13 -25 3z"/>
<path d="M4880 5979 c0 -5 5 -7 10 -4 6 3 10 8 10 11 0 2 -4 4 -10 4 -5 0 -10
-5 -10 -11z"/>
<path d="M4856 5915 c-3 -8 -1 -15 4 -15 6 0 10 7 10 15 0 8 -2 15 -4 15 -2 0
-6 -7 -10 -15z"/>
<path d="M4110 5900 c0 -5 5 -10 10 -10 6 0 10 5 10 10 0 6 -4 10 -10 10 -5 0
-10 -4 -10 -10z"/>
<path d="M4830 5855 c0 -8 2 -15 4 -15 2 0 6 7 10 15 3 8 1 15 -4 15 -6 0 -10
-7 -10 -15z"/>
<path d="M4611 5754 c0 -11 3 -14 6 -6 3 7 2 16 -1 19 -3 4 -6 -2 -5 -13z"/>
<path d="M3186 5725 c-3 -8 -15 -15 -26 -15 -12 0 -18 -4 -15 -10 5 -8 85 25
85 36 0 12 -39 2 -44 -11z"/>
<path d="M4781 5724 c0 -11 3 -14 6 -6 3 7 2 16 -1 19 -3 4 -6 -2 -5 -13z"/>
<path d="M7260 5549 c-7 -11 -10 -23 -7 -25 2 -2 9 7 15 21 14 30 7 33 -8 4z"/>
<path d="M7286 5513 c-6 -14 -5 -15 5 -6 7 7 10 15 7 18 -3 3 -9 -2 -12 -12z"/>
<path d="M520 5479 c-19 -6 -49 -17 -67 -25 -17 -7 -35 -14 -41 -14 -5 0 -15
-7 -22 -15 -8 -10 -17 -12 -24 -6 -9 7 -131 9 -318 3 l-48 -2 0 -194 c0 -190
0 -194 22 -208 20 -13 59 -22 198 -45 19 -3 43 -12 52 -20 16 -14 23 -12 75
19 40 23 61 43 68 63 5 17 12 32 16 35 17 14 18 61 2 78 -19 19 -22 32 -25
100 -1 43 19 81 29 54 4 -10 10 -10 29 3 19 12 45 15 107 13 71 -3 82 -1 82
14 0 9 4 20 8 24 15 15 6 50 -18 68 -14 10 -25 23 -25 29 0 14 -32 36 -50 36
-8 -1 -31 -5 -50 -10z"/>
<path d="M2790 5455 c-7 -9 -10 -18 -7 -21 3 -3 10 4 17 15 13 25 8 27 -10 6z"/>
<path d="M7301 5384 c0 -11 3 -14 6 -6 3 7 2 16 -1 19 -3 4 -6 -2 -5 -13z"/>
<path d="M4732 5344 c-7 -24 -12 -53 -12 -65 0 -12 -4 -17 -11 -14 -6 4 -8 13
-5 21 3 7 0 16 -6 20 -7 5 -9 -20 -6 -85 2 -50 1 -91 -3 -91 -4 0 -7 -43 -7
-96 0 -53 2 -93 6 -89 8 7 13 101 13 220 0 50 3 84 8 77 7 -12 13 2 39 100 6
21 7 40 3 42 -4 3 -13 -15 -19 -40z"/>
<path d="M7325 5339 c-10 -43 -1 -46 12 -4 6 19 7 35 3 35 -5 0 -11 -14 -15
-31z"/>
<path d="M7411 5354 c0 -11 3 -14 6 -6 3 7 2 16 -1 19 -3 4 -6 -2 -5 -13z"/>
<path d="M660 5251 c0 -15 30 -41 46 -41 21 0 17 21 -6 27 -11 3 -20 9 -20 14
0 5 -4 9 -10 9 -5 0 -10 -4 -10 -9z"/>
<path d="M2280 5245 c-7 -8 -17 -15 -22 -15 -16 0 -301 -143 -318 -160 -9 -8
-32 -23 -53 -32 -20 -10 -37 -21 -37 -26 0 -4 -17 -16 -37 -27 -21 -11 -42
-25 -46 -32 -4 -7 -12 -13 -18 -13 -15 0 -88 -70 -94 -91 -4 -11 -13 -19 -21
-19 -8 0 -14 -6 -14 -13 0 -8 -11 -20 -25 -27 -14 -7 -23 -16 -20 -18 3 -3 -4
-15 -14 -26 -11 -12 -21 -25 -22 -31 -5 -28 -20 -55 -31 -55 -14 -1 -53 -49
-45 -56 3 -3 30 19 61 49 31 29 67 60 81 67 13 7 22 17 19 22 -3 4 4 8 15 8
15 0 19 4 14 17 -4 11 -3 14 5 9 7 -4 12 -2 12 3 0 6 5 11 11 11 12 0 81 54
117 93 14 15 31 27 37 27 6 0 29 13 51 30 21 16 45 30 52 30 6 0 12 4 12 9 0
5 10 11 23 15 12 3 31 13 42 23 11 10 32 24 46 31 15 8 38 25 52 38 14 13 29
24 33 24 9 0 83 59 134 107 29 28 39 43 29 43 -9 0 -22 -7 -29 -15z"/>
<path d="M7017 5240 c-3 -11 -1 -23 4 -26 5 -3 9 6 9 20 0 31 -6 34 -13 6z"/>
<path d="M7331 5174 c0 -11 3 -14 6 -6 3 7 2 16 -1 19 -3 4 -6 -2 -5 -13z"/>
<path d="M6995 5170 c3 -5 8 -10 11 -10 2 0 4 5 4 10 0 6 -5 10 -11 10 -5 0
-7 -4 -4 -10z"/>
<path d="M7032 5160 c0 -14 2 -19 5 -12 2 6 2 18 0 25 -3 6 -5 1 -5 -13z"/>
<path d="M7318 5125 c-3 -14 -1 -25 3 -25 5 0 9 11 9 25 0 14 -2 25 -4 25 -2
0 -6 -11 -8 -25z"/>
<path d="M7373 5115 c-3 -9 -3 -18 -1 -21 3 -3 8 4 11 16 6 23 -1 27 -10 5z"/>
<path d="M4581 5084 c0 -11 3 -14 6 -6 3 7 2 16 -1 19 -3 4 -6 -2 -5 -13z"/>
<path d="M7281 5064 c0 -11 3 -14 6 -6 3 7 2 16 -1 19 -3 4 -6 -2 -5 -13z"/>
<path d="M7381 5054 c0 -11 3 -14 6 -6 3 7 2 16 -1 19 -3 4 -6 -2 -5 -13z"/>
<path d="M7346 5023 c-4 -16 -9 -37 -13 -48 -3 -13 -2 -17 5 -10 10 10 26 85
19 85 -3 0 -8 -12 -11 -27z"/>
<path d="M7277 5023 c-8 -13 -19 -108 -13 -102 7 7 25 109 20 109 -2 0 -5 -3
-7 -7z"/>
<path d="M5766 4981 c-12 -19 22 -45 62 -46 36 -1 40 1 31 17 -17 32 -79 51
-93 29z"/>
<path d="M7296 4945 c-3 -9 -6 -24 -5 -33 0 -9 5 -4 10 12 9 32 6 48 -5 21z"/>
<path d="M7316 4935 c-3 -9 -6 -24 -5 -33 0 -9 5 -4 10 12 9 32 6 48 -5 21z"/>
<path d="M6069 4861 c-30 -25 -23 -32 24 -24 28 4 37 10 35 22 -5 23 -31 25
-59 2z"/>
<path d="M6991 4864 c0 -11 3 -14 6 -6 3 7 2 16 -1 19 -3 4 -6 -2 -5 -13z"/>
<path d="M7301 4864 c0 -11 3 -14 6 -6 3 7 2 16 -1 19 -3 4 -6 -2 -5 -13z"/>
<path d="M5277 4844 c-41 -28 -44 -51 -6 -46 13 1 41 -6 64 -17 22 -11 55 -25
73 -32 19 -7 41 -23 49 -36 17 -25 82 -74 143 -107 19 -10 46 -28 60 -39 24
-19 24 -19 3 -13 -40 13 -17 -32 34 -66 33 -21 47 -23 40 -4 -4 10 0 12 14 9
14 -4 19 0 19 13 0 25 21 3 23 -25 1 -22 12 -28 21 -12 3 5 15 7 27 4 16 -5
18 -8 7 -15 -9 -6 -6 -7 9 -3 12 3 31 0 42 -6 15 -10 25 -10 46 -1 15 7 32 9
38 5 18 -12 181 -10 189 2 14 18 8 53 -9 59 -9 4 -36 4 -60 0 -35 -5 -55 -1
-101 19 -31 14 -68 28 -82 31 -67 14 -116 30 -131 42 -8 8 -20 14 -26 14 -6 0
-13 7 -17 15 -3 8 -18 15 -33 15 -15 0 -57 14 -93 31 -36 17 -93 45 -128 61
-42 21 -77 47 -104 79 -23 27 -48 49 -57 49 -9 0 -33 -12 -54 -26z"/>
<path d="M6985 4760 c-3 -5 -1 -10 4 -10 6 0 11 5 11 10 0 6 -2 10 -4 10 -3 0
-8 -4 -11 -10z"/>
<path d="M7196 4725 c-9 -26 -7 -32 5 -12 6 10 9 21 6 23 -2 3 -7 -2 -11 -11z"/>
<path d="M6981 4704 c0 -11 3 -14 6 -6 3 7 2 16 -1 19 -3 4 -6 -2 -5 -13z"/>
<path d="M7245 4693 c-5 -16 -9 -33 -10 -39 -2 -6 -6 -22 -9 -35 -4 -15 0 -11
12 11 24 43 36 90 23 90 -5 0 -12 -12 -16 -27z"/>
<path d="M501 4622 c-1 -7 -11 -26 -23 -42 -21 -29 -21 -30 -3 -64 30 -55 95
-72 95 -24 0 10 -4 16 -10 13 -14 -8 -13 18 1 32 8 8 8 13 0 17 -6 4 -11 18
-11 32 0 17 -6 24 -19 24 -11 0 -22 6 -24 13 -4 9 -6 9 -6 -1z"/>
<path d="M6937 4603 c-2 -10 -8 -26 -12 -35 -4 -10 -3 -18 3 -18 5 0 12 14 16
32 7 34 2 50 -7 21z"/>
<path d="M2995 4580 c-3 -5 -1 -10 4 -10 6 0 11 5 11 10 0 6 -2 10 -4 10 -3 0
-8 -4 -11 -10z"/>
<path d="M6520 4462 c-119 -121 -136 -134 -347 -267 -123 -77 -223 -143 -223
-147 0 -5 9 -17 20 -28 12 -12 15 -20 8 -20 -10 0 -10 -2 0 -9 16 -10 27 -71
13 -71 -6 0 -8 -7 -4 -16 7 -20 -26 -51 -87 -82 l-45 -23 45 7 c73 11 82 10
93 -8 8 -12 9 -26 1 -45 -7 -20 -7 -35 3 -53 9 -19 9 -26 0 -32 -9 -6 -8 -8 3
-8 9 0 11 -3 5 -8 -5 -4 -10 -16 -10 -27 1 -11 -4 -24 -10 -28 -6 -6 -5 -10 4
-14 10 -4 8 -9 -10 -19 -15 -8 -18 -13 -9 -14 10 0 11 -3 4 -8 -7 -4 -15 -25
-18 -47 -4 -22 -11 -41 -16 -43 -6 -2 -10 -13 -10 -24 0 -12 -3 -19 -6 -15 -6
6 -34 -16 -34 -27 0 -3 12 -1 26 4 14 6 32 10 40 10 21 0 17 -40 -8 -80 -49
-77 -54 -100 -18 -67 8 6 4 -1 -10 -17 -14 -15 -34 -32 -45 -37 -17 -8 -15 -9
8 -5 21 3 27 0 23 -11 -3 -8 -6 -21 -6 -29 0 -9 -5 -12 -12 -8 -8 5 -9 1 -5
-12 6 -15 4 -15 -11 4 -12 15 -21 19 -28 12 -5 -5 -42 -10 -82 -11 -65 -1 -92
-11 -60 -21 7 -3 6 -7 -5 -11 -13 -5 -17 -1 -17 14 0 18 -4 20 -27 15 -16 -4
-34 -8 -42 -9 -7 -2 -18 -12 -24 -23 -9 -17 -9 -17 5 -6 18 14 68 7 68 -10 0
-6 7 -8 15 -5 8 4 17 2 20 -3 10 -15 23 -12 28 8 4 14 5 13 6 -4 1 -15 14 -26
44 -39 23 -10 45 -18 48 -19 3 -1 13 -8 22 -16 38 -35 47 -39 63 -33 13 5 16
3 11 -10 -3 -9 -2 -19 4 -23 6 -3 3 -12 -8 -20 -17 -13 -17 -14 2 -7 17 6 18
5 7 -9 -10 -13 -10 -17 0 -21 10 -3 8 -10 -7 -27 -11 -13 -15 -20 -8 -16 8 4
15 -3 19 -21 3 -15 8 -36 11 -45 6 -23 -2 -23 -27 2 -12 12 -17 26 -13 37 5
16 4 15 -9 -1 -11 -14 -26 -19 -57 -18 -22 1 -41 0 -41 -3 0 -3 16 -20 35 -37
l36 -31 -3 -108 c-2 -60 -6 -109 -10 -109 -5 0 -8 -4 -8 -8 0 -5 7 -9 15 -9
10 0 15 10 15 29 0 17 4 27 10 23 6 -4 10 6 10 23 0 41 39 119 51 101 5 -8 9
-10 9 -5 0 4 11 1 25 -8 14 -9 31 -16 38 -14 21 5 87 -42 87 -62 0 -45 33
-116 67 -147 25 -23 34 -38 30 -52 -5 -21 11 -25 26 -6 4 6 12 3 21 -7 7 -10
18 -18 25 -18 6 0 11 -4 11 -9 0 -5 19 -11 42 -15 53 -9 108 -35 108 -51 0 -7
4 -15 8 -17 10 -3 26 -31 71 -123 28 -57 69 -105 140 -167 17 -16 35 -28 40
-28 14 0 21 -39 27 -155 5 -89 10 -116 27 -140 13 -17 22 -46 22 -70 2 -44 7
-68 35 -165 10 -36 26 -126 35 -200 14 -111 15 -140 4 -165 -7 -16 -11 -36
-10 -43 1 -6 -2 -12 -7 -12 -6 0 -13 -12 -17 -27 -3 -15 -20 -40 -36 -55 -16
-16 -29 -36 -29 -45 0 -9 -7 -23 -16 -32 -19 -20 -84 -122 -84 -133 0 -4 -7
-8 -16 -8 -8 0 -13 -4 -9 -10 3 -5 -6 -17 -20 -26 -31 -20 -32 -34 -2 -35 18
-1 17 -2 -8 -10 -16 -5 -37 -7 -45 -4 -40 12 -52 -45 -14 -66 23 -12 28 -11
41 6 8 11 21 19 29 17 9 -2 14 5 14 19 0 17 3 19 14 10 11 -10 16 -8 21 9 4
11 11 17 17 14 7 -5 9 -2 6 7 -4 13 26 52 37 47 7 -5 112 97 124 121 7 12 17
19 23 15 5 -4 15 0 20 7 6 9 7 -17 3 -73 -7 -93 1 -172 16 -162 5 3 8 -12 8
-33 -1 -38 -1 -38 -9 -8 -7 29 -8 29 -9 -10 -1 -25 -4 -35 -10 -27 -6 10 -10
10 -20 -2 -11 -13 -10 -18 2 -30 13 -14 16 -14 22 2 5 13 10 8 21 -23 29 -86
27 -98 -34 -161 -16 -17 -6 -29 46 -60 23 -13 32 -25 28 -36 -2 -10 0 -18 6
-18 6 0 9 -31 7 -83 l-4 -82 120 -3 121 -3 24 43 c21 37 30 82 32 156 0 12 5
22 10 22 6 0 7 7 3 18 -4 9 -9 28 -11 42 -2 14 -10 54 -18 90 -8 36 -28 135
-45 221 -29 145 -41 197 -77 309 -8 25 -16 50 -18 55 -6 20 -19 51 -37 91 -19
40 -26 134 -11 134 4 0 14 -6 22 -12 8 -7 6 -3 -4 10 -11 12 -16 25 -13 29 4
3 0 15 -10 25 -9 11 -11 18 -5 18 7 0 12 4 12 9 0 5 -10 7 -22 4 l-23 -4 22
13 c19 12 20 15 8 32 -8 10 -12 24 -8 29 4 6 0 8 -10 4 -10 -4 -17 -2 -17 5 0
7 -4 7 -13 -1 -8 -6 -17 -8 -20 -4 -4 3 -7 1 -7 -6 0 -42 -57 61 -61 110 -2
19 -7 40 -12 47 -6 7 -7 35 -2 65 9 71 7 97 -10 123 -17 27 -20 70 -5 79 15 9
12 58 -5 108 -13 40 -13 49 0 80 18 43 21 101 5 77 -8 -11 -9 -8 -4 13 5 21 1
34 -17 53 -21 23 -21 24 -3 25 10 1 28 1 39 0 18 -1 18 0 -5 19 -14 11 -32 26
-40 32 -8 7 -18 12 -22 10 -5 -1 -8 3 -8 9 0 6 7 9 15 5 8 -3 15 -1 15 4 0 6
-7 10 -15 10 -10 0 -13 9 -10 30 2 17 0 28 -3 26 -15 -9 -41 21 -37 42 2 14
-1 22 -11 22 -12 0 -19 18 -16 41 1 4 -9 5 -21 3 -20 -4 -20 -3 3 8 14 7 27
15 30 19 3 4 25 14 50 23 l45 17 -45 -7 c-25 -4 -64 -8 -87 -9 -38 -2 -41 0
-25 12 15 13 15 13 -8 7 -22 -6 -23 -5 -11 10 12 14 11 16 -3 16 -9 0 -16 5
-16 10 0 6 -8 10 -17 11 -11 0 -13 3 -5 6 6 2 12 9 12 14 0 6 -5 7 -12 3 -8
-5 -9 -2 -5 9 4 11 1 17 -9 17 -8 0 -12 5 -9 10 3 6 1 10 -4 10 -6 0 -11 7
-11 16 0 9 -5 12 -12 8 -7 -5 -9 -2 -5 9 3 9 -3 26 -14 39 -11 13 -17 16 -13
8 4 -9 3 -12 -2 -7 -5 5 -9 12 -9 16 0 5 -10 19 -22 32 -89 96 -117 143 -96
158 15 10 29 93 23 131 -7 42 -2 62 14 53 6 -3 -1 7 -16 24 -16 16 -28 32 -28
37 0 4 13 24 29 44 16 20 41 69 54 107 l24 70 37 -2 c34 -2 37 -1 30 20 -8 27
-25 49 -32 43 -2 -3 -13 5 -24 19 -18 23 -18 24 6 48 27 27 76 121 76 146 1
13 3 12 15 -3 8 -11 17 -17 20 -14 3 2 -4 13 -15 23 -24 22 -27 75 -5 75 8 0
15 6 15 13 0 8 4 7 10 -3 8 -13 10 -13 10 2 0 9 -5 20 -10 23 -6 4 -7 13 -1
23 4 9 6 22 4 29 -2 6 0 14 6 17 6 4 8 13 4 21 -3 9 0 22 7 30 7 9 10 18 6 22
-3 3 -6 1 -6 -6 0 -6 -6 -11 -12 -9 -22 4 -60 -13 -55 -25 2 -7 -1 -28 -8 -47
l-13 -35 -7 27 c-4 14 -2 35 4 47 6 11 14 55 18 98 3 43 10 81 16 84 5 4 2 17
-7 31 -9 14 -13 27 -10 30 3 4 1 16 -6 28 -9 17 -7 26 14 51 14 17 26 35 26
40 0 6 4 7 10 4 5 -3 7 0 5 7 -6 14 35 56 57 61 7 1 19 8 26 15 7 6 22 12 32
12 10 0 28 15 40 35 12 19 25 33 30 30 4 -3 15 6 24 20 20 31 21 41 1 25 -21
-17 -29 -7 -16 18 20 38 10 37 -13 -1 -34 -55 -110 -134 -129 -134 -13 0 -15
6 -9 26 4 14 7 65 6 112 0 71 -5 94 -23 125 -12 20 -23 50 -23 66 -1 15 -1 28
-2 27 -1 0 -57 -58 -126 -127z m115 -2002 c3 -5 -3 -10 -15 -10 -12 0 -18 5
-15 10 3 6 10 10 15 10 5 0 12 -4 15 -10z m202 -326 c-3 -3 -12 -4 -19 -1 -8
3 -5 6 6 6 11 1 17 -2 13 -5z m120 -2106 c-3 -7 -5 -2 -5 12 0 14 2 19 5 13 2
-7 2 -19 0 -25z"/>
<path d="M7205 4559 c-4 -6 -5 -12 -2 -15 2 -3 7 2 10 11 7 17 1 20 -8 4z"/>
<path d="M6906 4525 c-9 -26 -7 -32 5 -12 6 10 9 21 6 23 -2 3 -7 -2 -11 -11z"/>
<path d="M7213 4482 c1 -14 5 -18 11 -12 7 7 6 14 -1 21 -9 9 -12 7 -10 -9z"/>
<path d="M6885 4479 c-4 -6 -5 -12 -2 -15 2 -3 7 2 10 11 7 17 1 20 -8 4z"/>
<path d="M7276 4477 c3 -10 9 -15 12 -12 3 3 0 11 -7 18 -10 9 -11 8 -5 -6z"/>
<path d="M5850 4419 c0 -5 5 -7 10 -4 6 3 10 8 10 11 0 2 -4 4 -10 4 -5 0 -10
-5 -10 -11z"/>
<path d="M813 4388 c-50 -54 -54 -68 -30 -103 12 -16 26 -33 32 -37 17 -13
125 -5 125 9 0 6 7 19 16 27 8 9 17 25 19 36 2 11 8 27 14 37 8 15 2 21 -36
40 -64 33 -102 30 -140 -9z"/>
<path d="M7090 4329 c0 -5 5 -7 10 -4 6 3 10 8 10 11 0 2 -4 4 -10 4 -5 0 -10
-5 -10 -11z"/>
<path d="M7075 4301 c-3 -5 -1 -12 5 -16 5 -3 10 1 10 9 0 18 -6 21 -15 7z"/>
<path d="M7153 4285 c-3 -9 -3 -18 -1 -21 3 -3 8 4 11 16 6 23 -1 27 -10 5z"/>
<path d="M7056 4257 c3 -10 9 -15 12 -12 3 3 0 11 -7 18 -10 9 -11 8 -5 -6z"/>
<path d="M7244 4239 c-3 -6 -1 -16 5 -22 8 -8 11 -5 11 11 0 24 -5 28 -16 11z"/>
<path d="M1080 4220 c-9 -6 -10 -10 -3 -10 6 0 15 5 18 10 8 12 4 12 -15 0z"/>
<path d="M1040 4175 c-11 -13 -10 -14 4 -9 9 3 16 10 16 15 0 13 -6 11 -20 -6z"/>
<path d="M7000 4165 c-7 -9 -11 -18 -8 -20 3 -3 11 1 18 10 7 9 11 18 8 20 -3
3 -11 -1 -18 -10z"/>
<path d="M980 4160 c0 -13 11 -13 30 0 12 8 11 10 -7 10 -13 0 -23 -4 -23 -10z"/>
<path d="M942 4135 c-7 -8 -9 -15 -4 -15 5 0 15 7 22 15 16 19 -1 19 -18 0z"/>
<path d="M6966 4113 c-6 -14 -5 -15 5 -6 7 7 10 15 7 18 -3 3 -9 -2 -12 -12z"/>
<path d="M915 4095 c-16 -8 -25 -14 -20 -15 6 0 3 -4 -5 -10 -8 -5 -12 -11 -9
-14 3 -3 25 8 49 24 46 31 38 39 -15 15z"/>
<path d="M845 4040 c-3 -5 -2 -10 4 -10 5 0 13 5 16 10 3 6 2 10 -4 10 -5 0
-13 -4 -16 -10z"/>
<path d="M7054 4009 c-19 -22 -19 -22 4 -10 12 6 22 16 22 21 0 15 -5 12 -26
-11z"/>
<path d="M6925 3999 c-4 -6 -5 -12 -2 -15 2 -3 7 2 10 11 7 17 1 20 -8 4z"/>
<path d="M5606 3913 c-47 -4 -48 -5 -30 -24 9 -10 23 -19 30 -19 8 0 19 -9 26
-20 20 -31 54 -21 71 20 4 12 6 11 6 -2 1 -10 7 -18 15 -18 23 0 24 33 2 53
-10 9 -31 16 -45 15 -14 -1 -48 -3 -75 -5z"/>
<path d="M7023 3894 c-31 -35 -29 -53 2 -20 14 15 25 31 25 37 0 13 -2 12 -27
-17z"/>
<path d="M6720 3880 c-6 -11 -8 -20 -6 -20 3 0 10 9 16 20 6 11 8 20 6 20 -3
0 -10 -9 -16 -20z"/>
<path d="M7046 3844 c-4 -9 -4 -19 -1 -22 2 -3 7 3 11 12 4 9 4 19 1 22 -2 3
-7 -3 -11 -12z"/>
<path d="M4553 3738 c-18 -9 -21 -16 -16 -37 3 -14 8 -30 12 -36 6 -11 7 -18
9 -62 2 -31 4 -32 40 -29 20 2 44 4 54 5 12 1 8 9 -17 34 -37 37 -57 113 -34
128 21 13 -21 10 -48 -3z"/>
<path d="M5694 3386 c4 -29 26 -44 57 -37 16 3 30 9 30 14 -1 4 -3 7 -6 7 -3
0 -21 7 -41 15 -44 18 -43 18 -40 1z"/>
<path d="M4360 3346 c0 -2 7 -7 16 -10 8 -3 12 -2 9 4 -6 10 -25 14 -25 6z"/>
<path d="M6610 3319 c0 -9 62 -31 69 -24 3 3 -5 8 -17 12 -12 3 -22 9 -22 12
0 4 -7 8 -15 8 -8 0 -15 -4 -15 -8z"/>
<path d="M3170 3300 c-8 -5 -10 -10 -5 -10 6 0 17 5 25 10 8 5 11 10 5 10 -5
0 -17 -5 -25 -10z"/>
<path d="M5263 3303 c-7 -2 -13 -11 -13 -18 0 -7 -6 -16 -12 -19 -7 -3 -2 -3
12 0 24 6 40 21 40 37 0 8 -8 8 -27 0z"/>
<path d="M6710 3300 c0 -5 5 -10 10 -10 6 0 10 5 10 10 0 6 -4 10 -10 10 -5 0
-10 -4 -10 -10z"/>
<path d="M6765 3300 c-11 -5 -17 -9 -13 -9 3 -1 13 -3 21 -6 8 -4 14 0 14 10
0 8 -1 15 -1 14 -1 0 -10 -4 -21 -9z"/>
<path d="M4808 3274 c-11 -16 -1 -85 13 -99 11 -11 22 -12 44 -6 17 5 24 10
17 10 -7 1 -10 6 -6 13 5 8 2 9 -9 5 -12 -5 -17 -1 -17 13 0 10 -5 22 -11 25
-6 4 -14 16 -18 28 -4 11 -10 16 -13 11z"/>
<path d="M4994 3225 c-4 -8 -9 -13 -13 -10 -4 2 -8 -2 -8 -10 0 -11 10 -14 40
-10 38 5 64 15 39 15 -6 0 -9 7 -6 15 5 11 -1 15 -20 15 -15 0 -29 -7 -32 -15z"/>
<path d="M5580 3139 c0 -5 5 -7 10 -4 6 3 10 8 10 11 0 2 -4 4 -10 4 -5 0 -10
-5 -10 -11z"/>
<path d="M4660 2980 c0 -5 7 -10 16 -10 8 0 12 5 9 10 -3 6 -10 10 -16 10 -5
0 -9 -4 -9 -10z"/>
<path d="M5895 2300 c3 -5 8 -10 11 -10 2 0 4 5 4 10 0 6 -5 10 -11 10 -5 0
-7 -4 -4 -10z"/>
<path d="M6840 2170 c0 -6 7 -10 15 -10 8 0 15 2 15 4 0 2 -7 6 -15 10 -8 3
-15 1 -15 -4z"/>
<path d="M1085 2041 c-11 -11 -36 -28 -55 -38 -27 -15 -36 -28 -43 -59 -7 -35
-5 -41 18 -61 14 -12 25 -30 25 -39 0 -10 9 -28 21 -40 16 -17 28 -21 58 -17
24 3 51 -1 72 -11 53 -24 121 -37 136 -25 7 6 17 8 23 4 6 -3 30 -8 54 -11 36
-3 50 0 73 20 20 17 36 22 59 19 18 -3 35 0 38 6 4 6 16 11 27 11 10 0 19 5
19 12 0 6 11 1 24 -11 17 -16 30 -20 49 -16 57 15 56 44 -1 98 -30 29 -178
117 -196 117 -5 0 7 -18 29 -40 21 -22 36 -42 33 -45 -7 -7 -92 38 -159 84
-26 17 -57 31 -70 31 -13 0 -33 7 -43 15 -14 10 -44 15 -96 15 -61 0 -79 -4
-95 -19z"/>
<path d="M6036 2046 c7 -19 20 -21 30 -3 4 6 4 9 -1 5 -4 -4 -14 -3 -22 4 -11
8 -12 7 -7 -6z"/>
<path d="M6870 2050 c0 -5 5 -10 11 -10 5 0 7 5 4 10 -3 6 -8 10 -11 10 -2 0
-4 -4 -4 -10z"/>
<path d="M4550 1925 c0 -6 13 -19 30 -30 16 -11 29 -24 29 -30 -3 -29 3 -45
17 -45 8 0 12 -5 9 -10 -3 -6 1 -13 10 -16 12 -5 15 -14 10 -31 -4 -19 -1 -26
15 -30 11 -3 20 -14 20 -24 0 -10 4 -20 10 -24 5 -3 7 -13 4 -23 -3 -9 1 -6
10 8 14 24 15 22 10 -32 -3 -37 -1 -58 5 -58 6 0 11 -6 11 -13 0 -7 9 -23 21
-35 11 -12 17 -27 14 -32 -3 -6 -1 -10 4 -10 6 0 17 -21 23 -46 7 -27 28 -63
47 -83 18 -20 45 -54 60 -75 14 -22 35 -49 46 -61 11 -11 34 -38 50 -59 17
-21 35 -44 41 -50 6 -6 19 -24 29 -39 14 -21 24 -28 42 -24 17 3 23 0 23 -14
0 -11 4 -19 10 -19 5 0 7 8 5 18 -3 9 1 3 9 -14 17 -35 44 -50 60 -34 5 5 15
10 20 10 6 0 -4 -10 -22 -22 l-34 -21 23 -13 c13 -7 27 -10 30 -8 4 2 5 -6 2
-17 -4 -16 -2 -20 8 -17 8 2 15 19 17 37 3 25 0 31 -10 25 -7 -4 -1 5 15 21
15 15 27 34 27 41 0 17 69 84 87 84 7 0 13 5 13 11 0 5 5 7 12 3 8 -5 9 -2 4
11 -6 16 -4 16 11 4 9 -8 14 -9 10 -2 -5 7 4 14 23 18 17 4 27 11 24 16 -3 6
0 9 7 8 18 -4 59 10 59 19 0 4 16 8 36 10 42 3 77 19 69 33 -4 5 -2 9 4 9 6 0
8 7 5 15 -4 8 -1 15 5 15 6 0 11 -5 11 -11 0 -6 7 -9 14 -6 9 4 13 1 10 -6 -3
-10 23 -13 103 -15 83 -2 104 1 95 10 -7 7 -12 17 -12 22 0 6 5 4 10 -4 8 -13
10 -12 10 3 0 12 8 17 27 17 26 0 26 1 7 15 -18 14 -18 14 4 8 29 -7 28 -20
-3 -45 -24 -18 -36 -46 -15 -33 6 3 10 1 10 -4 0 -6 5 -11 10 -11 6 0 10 9 10
19 0 20 42 37 62 25 6 -4 9 -1 6 7 -3 8 1 20 8 27 8 7 10 20 6 30 -6 15 -7 15
-10 -3 -1 -12 -12 -26 -23 -33 -18 -12 -21 -11 -26 7 -3 12 -13 21 -22 21 -15
1 -15 1 1 10 21 13 56 1 36 -11 -9 -6 -9 -9 -1 -9 20 0 35 37 20 52 -6 7 -19
22 -27 32 -14 18 -14 19 8 5 12 -8 22 -18 22 -23 0 -4 7 -2 17 5 15 13 15 12
4 -9 -10 -19 -9 -23 6 -29 10 -4 21 -11 24 -15 9 -13 59 2 59 18 0 7 8 18 18
23 16 10 16 10 -2 11 -12 0 -16 5 -12 16 4 12 2 15 -9 10 -17 -6 -21 9 -5 19
6 4 7 11 4 17 -5 7 2 9 20 6 14 -3 26 -1 26 4 0 5 10 7 23 3 22 -6 22 -6 2 9
-11 8 -25 20 -32 26 -7 5 -18 7 -26 4 -8 -3 -18 -1 -22 5 -3 6 0 11 7 11 8 0
14 9 14 20 0 24 -5 25 -20 5 -6 -8 -30 -16 -53 -17 -22 -2 -39 -6 -37 -10 2
-4 21 -4 42 -1 l37 5 -43 -28 c-23 -16 -38 -30 -32 -32 19 -7 10 -22 -12 -21
-13 1 -38 -2 -55 -6 -23 -5 -33 -4 -33 4 0 8 8 10 23 6 18 -6 20 -5 10 6 -10
10 -18 10 -40 -1 -16 -7 -34 -12 -42 -11 -7 1 -10 -2 -6 -8 3 -6 -1 -18 -9
-27 -15 -14 -16 -14 -16 0 0 9 4 16 10 16 15 0 0 28 -18 33 -10 3 -5 5 10 6
15 0 30 -4 33 -9 4 -6 11 -8 16 -4 5 3 7 10 3 15 -3 5 -9 7 -14 4 -5 -3 -11
-1 -15 5 -3 5 1 10 9 10 9 0 16 8 16 18 0 13 -2 14 -9 3 -5 -7 -13 -11 -18 -8
-13 8 -86 -12 -95 -27 -6 -8 -8 -8 -8 0 0 7 -12 20 -27 30 -27 17 -28 17 -13
-2 28 -35 39 -44 55 -44 9 0 14 -3 12 -7 -3 -5 -31 -6 -64 -4 -53 4 -55 5 -23
12 19 3 27 7 17 8 -11 0 -15 6 -11 13 5 7 0 9 -14 6 -19 -5 -20 -4 -11 14 6
12 7 18 1 14 -10 -6 -30 12 -30 29 0 6 4 15 9 21 6 8 4 14 -6 18 -11 4 -14 2
-9 -6 5 -8 2 -9 -9 -5 -10 3 -17 2 -17 -3 0 -6 4 -10 9 -10 4 0 7 -10 6 -22
-1 -13 -3 -30 -4 -38 -1 -13 -3 -13 -10 -1 -5 8 -7 20 -4 27 7 18 -12 50 -21
35 -4 -6 -3 -11 3 -11 5 0 8 -8 6 -17 -2 -10 -4 -24 -4 -30 -1 -7 -9 -13 -18
-12 -11 0 -13 3 -5 6 6 2 12 11 12 19 0 17 -30 19 -30 2 -1 -8 -8 -5 -18 7
-18 21 -76 26 -102 10 -8 -5 -11 -4 -7 2 4 6 0 19 -8 29 -14 18 -14 18 -15 -3
0 -17 -6 -23 -22 -22 -22 0 -22 1 -3 9 11 5 14 9 7 9 -7 1 -10 6 -7 11 3 6 -1
10 -9 10 -9 0 -16 -4 -16 -9 0 -5 -10 -7 -22 -4 -15 3 -19 2 -11 -4 19 -14
-19 -43 -41 -31 -18 10 -22 28 -5 28 5 0 7 -5 3 -11 -4 -7 -1 -10 6 -7 7 2 14
12 16 21 2 14 -6 17 -42 17 -36 0 -44 3 -42 16 2 10 -4 19 -12 21 -11 3 -11 2
-3 -4 17 -12 0 -35 -20 -27 -9 3 -15 9 -13 13 3 4 -11 5 -30 3 -21 -3 -34 0
-34 7 0 7 5 9 12 5 7 -4 8 -3 4 4 -10 16 -33 15 -39 0 -3 -10 -8 -10 -21 1 -9
8 -19 11 -23 7 -3 -3 -1 -6 5 -6 6 0 9 -7 6 -15 -9 -23 -24 -18 -25 8 0 12 -3
17 -5 10 -3 -7 -12 -9 -21 -6 -11 4 -14 2 -9 -5 5 -8 1 -10 -10 -5 -10 4 -15
2 -11 -3 3 -5 -3 -10 -13 -10 -10 0 -16 6 -13 13 3 7 13 13 22 13 9 0 2 8 -16
16 -29 15 -34 15 -57 -3 -14 -10 -28 -26 -31 -35 -4 -10 -14 -18 -23 -18 -15
1 -15 2 1 14 14 11 15 15 5 19 -10 4 -10 6 0 6 6 1 12 9 12 19 0 15 2 15 10 2
9 -13 12 -12 25 5 13 17 19 18 46 8 l31 -12 -18 21 c-11 12 -14 18 -8 15 19
-11 26 25 9 42 -9 9 -15 11 -15 4 0 -6 6 -14 13 -16 6 -3 -6 -3 -28 0 -27 3
-36 2 -27 -5 11 -7 10 -10 -5 -14 -10 -3 -24 1 -31 8 -10 11 -16 11 -33 1 -19
-12 -19 -12 3 -19 16 -4 12 -6 -14 -5 -34 2 -56 16 -25 17 6 1 24 18 38 39
l27 38 -42 14 c-22 7 -46 13 -53 12 -7 0 -12 2 -11 6 4 34 -3 43 -29 36 -23
-5 -25 -4 -14 9 7 8 20 12 29 9 14 -5 13 -2 -3 14 -15 15 -21 16 -23 6 -5 -19
-20 -16 -32 7 -6 11 -15 18 -21 15 -5 -4 -9 -1 -9 4 0 6 -4 11 -10 11 -5 0 -7
-8 -4 -17 4 -11 3 -14 -3 -7 -4 6 -16 13 -26 17 -10 4 -15 11 -12 17 3 5 -2
10 -12 10 -11 0 -24 5 -31 12 -7 7 -12 8 -12 3z m140 -128 c-8 -8 -11 -8 -6 0
10 19 -4 45 -19 33 -9 -7 -16 -6 -25 5 -11 13 -10 14 2 10 9 -4 18 1 23 12 6
15 9 13 23 -15 13 -27 14 -34 2 -45z m47 -3 c-3 -3 -12 -4 -19 -1 -8 3 -5 6 6
6 11 1 17 -2 13 -5z m-14 -21 c-7 -2 -19 -2 -25 0 -7 3 -2 5 12 5 14 0 19 -2
13 -5z m27 -12 c0 -5 -9 -19 -20 -32 l-19 -24 -1 30 c0 20 3 26 9 17 7 -11 9
-11 14 2 7 17 17 22 17 7z m90 -27 c0 -3 -9 -15 -21 -27 l-20 -22 5 30 c2 17
5 31 5 32 2 4 31 -9 31 -13z m-80 -19 c0 -8 -4 -15 -10 -15 -5 0 -7 7 -4 15 4
8 8 15 10 15 2 0 4 -7 4 -15z m27 -27 c-3 -8 -6 -5 -6 6 -1 11 2 17 5 13 3 -3
4 -12 1 -19z m152 -32 c-2 -2 -17 -6 -34 -10 -22 -5 -26 -4 -15 4 14 9 59 15
49 6z m-119 -56 c-12 -8 -12 -10 -1 -10 8 0 12 -3 8 -6 -9 -9 -28 6 -22 17 4
5 12 9 18 9 7 0 6 -4 -3 -10z m113 -17 c-7 -2 -21 -2 -30 0 -10 3 -4 5 12 5
17 0 24 -2 18 -5z m252 -23 c8 -13 -5 -13 -25 0 -13 8 -13 10 2 10 9 0 20 -4
23 -10z m-128 -6 c-3 -3 -12 -4 -19 -1 -8 3 -5 6 6 6 11 1 17 -2 13 -5z m58
-12 c-3 -3 -11 0 -18 7 -9 10 -8 11 6 5 10 -3 15 -9 12 -12z m39 -3 c-8 -14
-21 -11 -21 5 0 8 6 12 14 9 7 -3 10 -9 7 -14z m106 -15 c0 -21 -17 -17 -23 5
-3 14 -1 18 9 14 8 -3 14 -11 14 -19z m-65 6 c-3 -5 -14 -10 -23 -10 -15 0
-15 2 -2 10 20 13 33 13 25 0z m-109 -15 c-15 -8 -33 -15 -40 -15 -16 1 36 29
54 30 8 0 2 -7 -14 -15z m310 -10 c11 1 21 -3 21 -9 0 -6 4 -19 8 -28 4 -10 3
-18 -3 -18 -5 0 -12 11 -16 23 -4 19 -12 24 -41 24 -25 0 -32 -4 -25 -11 15
-15 12 -26 -5 -19 -9 3 -22 -2 -31 -13 -14 -18 -14 -18 -8 1 12 35 45 65 63
56 9 -4 25 -7 37 -6z m-146 -25 c-20 -13 -33 -13 -25 0 3 6 14 10 23 10 15 0
15 -2 2 -10z m136 -16 c-3 -7 0 -15 7 -17 9 -3 8 -8 -2 -18 -9 -9 -11 -9 -7
-1 4 6 2 12 -4 12 -7 0 -10 7 -6 15 3 8 1 15 -4 15 -6 0 -10 4 -10 10 0 5 7 7
16 3 8 -3 13 -11 10 -19z m711 19 c-9 -2 -15 -8 -12 -13 3 -5 12 -7 20 -3 8 3
15 0 15 -6 0 -14 -27 -14 -35 0 -5 6 -12 4 -21 -8 -9 -13 -13 -14 -14 -4 0 17
30 41 50 40 10 -1 10 -3 -3 -6z m-237 -13 c0 -5 -8 -10 -17 -10 -15 0 -16 2
-3 10 19 12 20 12 20 0z m304 1 c4 -5 -1 -8 -9 -7 -21 3 -31 16 -12 16 9 0 18
-4 21 -9z m-597 -7 c-3 -3 -12 -4 -19 -1 -8 3 -5 6 6 6 11 1 17 -2 13 -5z
m250 -10 c-3 -3 -12 -4 -19 -1 -8 3 -5 6 6 6 11 1 17 -2 13 -5z m-190 -10 c-3
-3 -12 -4 -19 -1 -8 3 -5 6 6 6 11 1 17 -2 13 -5z m-282 -33 c-3 -6 -11 -11
-16 -11 -5 0 -4 6 3 14 14 16 24 13 13 -3z m162 2 c3 -7 -4 -9 -16 -6 -12 3
-18 9 -15 15 7 11 26 6 31 -9z m583 -3 c-20 -13 -33 -13 -25 0 3 6 14 10 23
10 15 0 15 -2 2 -10z m-140 -4 c0 -2 -7 -7 -16 -10 -8 -3 -12 -2 -9 4 6 10 25
14 25 6z m-215 -16 c4 -7 -3 -8 -22 -4 -38 9 -42 14 -10 14 14 0 29 -5 32 -10z
m85 6 c0 -2 -7 -7 -16 -10 -8 -3 -12 -2 -9 4 6 10 25 14 25 6z m-410 -10 c0
-3 -4 -8 -10 -11 -5 -3 -10 -1 -10 4 0 6 5 11 10 11 6 0 10 -2 10 -4z m555 -6
c3 -5 -1 -10 -10 -10 -9 0 -13 5 -10 10 3 6 8 10 10 10 2 0 7 -4 10 -10z m141
-3 c4 -4 1 -7 -7 -7 -10 -1 -9 -5 5 -15 18 -13 18 -14 -2 -12 -12 0 -19 3 -17
5 2 3 0 13 -5 22 -7 14 -6 18 5 16 8 -1 18 -5 21 -9z m-511 -7 c3 -5 2 -10 -4
-10 -5 0 -13 5 -16 10 -3 6 -2 10 4 10 5 0 13 -4 16 -10z m315 -14 c0 -11 -19
-15 -25 -6 -3 5 1 10 9 10 9 0 16 -2 16 -4z m50 0 c0 -11 -19 -15 -25 -6 -3 5
1 10 9 10 9 0 16 -2 16 -4z m-85 -26 c-3 -5 -12 -10 -18 -10 -7 0 -6 4 3 10
19 12 23 12 15 0z m-169 -32 c-10 -6 -22 -6 -26 -2 -5 5 3 10 18 11 22 1 24 0
8 -9z m177 -7 c-3 -12 -11 -17 -19 -14 -8 3 -21 0 -28 -6 -9 -8 -16 -8 -20 -2
-3 5 7 12 24 16 16 4 32 11 35 16 10 15 13 10 8 -10z m-113 -31 c0 -5 -5 -10
-11 -10 -5 0 -7 5 -4 10 3 6 8 10 11 10 2 0 4 -4 4 -10z m-130 -20 c0 -5 -5
-10 -11 -10 -5 0 -7 5 -4 10 3 6 8 10 11 10 2 0 4 -4 4 -10z"/>
<path d="M5585 1920 c3 -5 11 -10 16 -10 6 0 7 5 4 10 -3 6 -11 10 -16 10 -6
0 -7 -4 -4 -10z"/>
<path d="M4810 1863 c0 -4 5 -15 10 -23 8 -13 10 -13 10 2 0 9 -4 20 -10 23
-5 3 -10 3 -10 -2z"/>
<path d="M4781 1830 c-1 -18 33 -50 54 -50 27 0 16 17 -14 23 -16 4 -31 14
-34 24 -3 13 -5 14 -6 3z"/>
<path d="M4937 1800 c-3 -11 -1 -20 4 -20 5 0 9 9 9 20 0 11 -2 20 -4 20 -2 0
-6 -9 -9 -20z"/>
<path d="M5018 1813 c-13 -3 -18 -15 -18 -39 0 -22 4 -33 10 -29 6 4 17 2 25
-5 9 -7 15 -8 20 0 3 5 1 10 -4 10 -6 0 -10 3 -10 8 4 21 -3 32 -18 32 -15 0
-14 2 3 15 20 15 20 15 -8 8z m7 -43 c3 -5 1 -10 -4 -10 -6 0 -11 5 -11 10 0
6 2 10 4 10 3 0 8 -4 11 -10z"/>
<path d="M6130 1773 c0 -13 5 -23 10 -23 13 0 13 11 0 30 -8 12 -10 11 -10 -7z"/>
<path d="M4965 1770 c3 -5 10 -10 16 -10 5 0 9 5 9 10 0 6 -7 10 -16 10 -8 0
-12 -4 -9 -10z"/>
<path d="M5670 1770 c-9 -6 -10 -10 -3 -10 6 0 15 5 18 10 8 12 4 12 -15 0z"/>
<path d="M5990 1760 c0 -5 5 -10 11 -10 5 0 7 5 4 10 -3 6 -8 10 -11 10 -2 0
-4 -4 -4 -10z"/>
<path d="M6101 1754 c0 -11 3 -14 6 -6 3 7 2 16 -1 19 -3 4 -6 -2 -5 -13z"/>
<path d="M4900 1750 c0 -5 7 -7 15 -4 8 4 15 8 15 10 0 2 -7 4 -15 4 -8 0 -15
-4 -15 -10z"/>
<path d="M4990 1726 c0 -2 7 -6 15 -10 8 -3 15 -1 15 4 0 6 -7 10 -15 10 -8 0
-15 -2 -15 -4z"/>
<path d="M5930 1720 c0 -5 5 -10 10 -10 6 0 10 5 10 10 0 6 -4 10 -10 10 -5 0
-10 -4 -10 -10z"/>
<path d="M5030 1710 c0 -5 -6 -10 -14 -10 -8 0 -18 -5 -22 -12 -4 -6 -3 -8 4
-4 6 3 13 -2 15 -11 4 -17 5 -17 6 0 0 9 9 17 19 17 9 0 13 -4 7 -8 -5 -4 -16
-15 -24 -24 -12 -16 -11 -18 2 -18 23 0 42 37 28 54 -6 7 -8 16 -4 19 3 4 1 7
-5 7 -7 0 -12 -4 -12 -10z"/>
<path d="M5960 1711 c0 -5 7 -11 15 -15 8 -3 15 -1 15 3 0 5 -7 11 -15 15 -8
3 -15 1 -15 -3z"/>
<path d="M6091 1704 c0 -11 3 -14 6 -6 3 7 2 16 -1 19 -3 4 -6 -2 -5 -13z"/>
<path d="M5970 1671 c0 -10 19 -25 25 -20 1 2 -3 10 -11 17 -8 7 -14 8 -14 3z"/>
<path d="M5545 1640 c-3 -5 -1 -10 4 -10 6 0 11 5 11 10 0 6 -2 10 -4 10 -3 0
-8 -4 -11 -10z"/>
<path d="M5770 1635 c0 -8 4 -15 10 -15 5 0 7 7 4 15 -4 8 -8 15 -10 15 -2 0
-4 -7 -4 -15z"/>
<path d="M5025 1630 c-13 -6 -15 -9 -5 -9 8 0 22 4 30 9 18 12 2 12 -25 0z"/>
<path d="M5325 1632 c13 -14 65 -23 65 -11 0 5 -9 9 -19 9 -11 0 -28 3 -38 6
-13 5 -15 4 -8 -4z"/>
<path d="M5975 1631 c-3 -5 -2 -12 3 -15 5 -3 9 1 9 9 0 17 -3 19 -12 6z"/>
<path d="M5150 1600 c0 -5 5 -10 11 -10 5 0 7 5 4 10 -3 6 -8 10 -11 10 -2 0
-4 -4 -4 -10z"/>
<path d="M5255 1600 c3 -5 8 -10 11 -10 2 0 4 5 4 10 0 6 -5 10 -11 10 -5 0
-7 -4 -4 -10z"/>
<path d="M5318 1603 c7 -3 16 -2 19 1 4 3 -2 6 -13 5 -11 0 -14 -3 -6 -6z"/>
<path d="M5369 1608 c-6 -26 -4 -35 7 -35 16 0 19 23 4 32 -5 3 -10 5 -11 3z"/>
<path d="M5780 1600 c0 -5 5 -10 10 -10 6 0 10 5 10 10 0 6 -4 10 -10 10 -5 0
-10 -4 -10 -10z"/>
<path d="M5276 1584 c-11 -8 -16 -14 -10 -14 13 0 39 18 34 24 -3 2 -14 -2
-24 -10z"/>
<path d="M5560 1586 c0 -8 -6 -17 -12 -19 -7 -3 -4 -6 7 -6 17 -1 17 -3 5 -11
-13 -8 -12 -10 4 -10 13 0 16 5 12 16 -4 9 -1 23 5 30 9 11 8 14 -5 14 -9 0
-16 -6 -16 -14z"/>
<path d="M5723 1585 c11 -7 25 -11 33 -8 25 10 15 23 -18 23 -31 -1 -32 -2
-15 -15z"/>
<path d="M5823 1583 c-22 -8 -14 -25 8 -18 16 5 19 4 14 -5 -5 -9 -4 -11 3 -6
7 4 12 2 12 -3 0 -6 7 -11 15 -11 10 0 12 -6 8 -17 -6 -16 -5 -17 12 -3 10 8
20 13 23 10 3 -3 6 3 8 13 3 20 -12 23 -19 5 -4 -10 -8 -9 -16 2 -8 11 -6 17
7 23 10 4 6 5 -11 2 -19 -4 -26 -2 -22 5 6 10 -20 13 -42 3z"/>
<path d="M5335 1570 c3 -5 8 -10 11 -10 2 0 4 5 4 10 0 6 -5 10 -11 10 -5 0
-7 -4 -4 -10z"/>
<path d="M5610 1570 c-9 -6 -10 -10 -3 -10 6 0 15 5 18 10 8 12 4 12 -15 0z"/>
<path d="M5678 1571 c7 -4 11 -19 8 -33 -4 -23 -1 -26 25 -24 15 1 32 6 36 11
4 4 -2 6 -13 3 -12 -3 -28 -2 -35 3 -11 7 -9 9 6 9 17 0 17 2 5 10 -8 5 -10
10 -5 10 13 0 -17 20 -30 20 -5 0 -4 -4 3 -9z"/>
<path d="M5936 1567 c3 -10 9 -15 12 -12 3 3 0 11 -7 18 -10 9 -11 8 -5 -6z"/>
<path d="M0 917 l0 -653 30 -11 c39 -15 116 6 175 45 40 28 107 95 114 116 10
31 46 56 80 56 20 0 41 -4 48 -8 14 -9 20 -171 9 -220 -6 -27 -4 -36 11 -47
10 -7 14 -17 10 -21 -4 -5 -11 -3 -15 3 -4 6 -21 15 -37 19 -17 4 -36 11 -43
17 -9 7 -18 1 -35 -19 -35 -45 -56 -64 -71 -64 -31 0 -46 14 -56 52 -9 32 -15
39 -32 36 -30 -4 -32 -21 -6 -33 18 -8 23 -18 23 -45 0 -31 -3 -35 -29 -38
-16 -2 -33 1 -39 7 -15 15 -27 14 -21 -2 2 -7 -2 -21 -10 -32 -14 -19 -15 -19
-35 -1 -12 11 -22 17 -24 15 -5 -7 -27 -75 -27 -82 0 -4 330 -7 734 -7 l735 0
6 44 c6 41 11 46 53 65 77 34 209 119 254 163 24 22 55 45 70 50 16 6 26 13
24 17 -9 15 -46 161 -46 182 0 26 -43 104 -74 135 -63 63 -83 64 -251 17 -49
-14 -112 -29 -139 -34 -66 -11 -148 -40 -162 -56 -6 -7 -28 -16 -49 -21 -51
-10 -63 -41 -29 -77 24 -26 32 -55 16 -55 -14 0 -42 35 -42 52 0 28 -42 38
-158 36 -73 -1 -116 2 -120 9 -11 18 -92 36 -106 24 -7 -6 -16 -7 -21 -3 -4 4
-5 -5 -2 -19 10 -41 0 -39 -49 8 -38 35 -53 43 -79 41 -32 -2 -83 30 -129 81
-22 25 -36 27 -36 6 0 -23 -25 -18 -40 9 -17 32 -99 110 -107 102 -3 -3 2 -15
12 -26 10 -11 16 -23 13 -25 -3 -3 -18 9 -32 27 -58 72 -67 78 -86 68 -15 -8
-20 -6 -25 10 -3 11 -4 28 -1 38 4 10 -1 27 -9 38 -16 21 -20 64 -6 64 6 0 13
-4 16 -10 3 -5 13 -10 21 -10 23 0 13 33 -14 46 -13 6 -24 15 -24 20 -1 5 -13
18 -26 28 -21 17 -22 20 -8 28 22 12 20 21 -10 57 -14 17 -23 35 -19 41 3 5 2
10 -3 10 -18 0 -22 33 -7 50 12 13 14 28 10 53 -5 26 -3 36 9 40 9 4 13 13 10
21 -3 8 2 28 12 45 16 27 16 31 1 64 -10 19 -17 47 -17 62 0 20 -7 29 -35 41
-19 7 -39 14 -45 14 -7 0 -10 -211 -10 -653z m608 -500 c7 -34 -63 -33 -106 1
-24 18 -24 18 40 16 46 -2 64 -7 66 -17z m330 -19 c20 -20 14 -44 -13 -56 -35
-16 -35 -16 -35 16 0 26 15 52 30 52 3 0 11 -5 18 -12z m-218 -73 c7 -9 10
-18 7 -21 -9 -9 -48 16 -42 27 9 13 21 11 35 -6z"/>
<path d="M5449 1557 c6 -8 9 -16 6 -19 -3 -3 10 -4 29 -4 19 1 38 5 43 9 4 5
-1 5 -10 1 -10 -3 -17 -3 -16 2 4 21 -2 25 -18 13 -13 -11 -17 -11 -20 -1 -3
6 -9 12 -15 12 -7 0 -7 -5 1 -13z"/>
<path d="M5800 1540 c-11 -7 -11 -10 -2 -10 7 0 10 -4 7 -10 -3 -5 0 -7 9 -4
8 3 12 12 9 20 -6 16 -4 16 -23 4z"/>
<path d="M5845 1528 c4 -11 0 -18 -12 -21 -15 -4 -16 -5 -1 -6 22 -1 33 18 19
32 -9 9 -11 8 -6 -5z"/>
<path d="M6177 1520 c-3 -11 -1 -20 4 -20 5 0 9 9 9 20 0 11 -2 20 -4 20 -2 0
-6 -9 -9 -20z"/>
<path d="M5568 1523 c7 -3 16 -2 19 1 4 3 -2 6 -13 5 -11 0 -14 -3 -6 -6z"/>
<path d="M6020 1479 c0 -5 5 -7 10 -4 6 3 10 8 10 11 0 2 -4 4 -10 4 -5 0 -10
-5 -10 -11z"/>
<path d="M5964 1455 c8 -8 17 -15 20 -15 3 0 3 7 0 15 -4 8 -13 15 -21 15 -12
0 -12 -2 1 -15z"/>
<path d="M6190 1430 c0 -5 5 -10 11 -10 5 0 7 5 4 10 -3 6 -8 10 -11 10 -2 0
-4 -4 -4 -10z"/>
<path d="M6167 1404 c-3 -3 -3 -12 0 -20 3 -8 -3 -21 -13 -29 -18 -14 -18 -16
-1 -29 15 -12 16 -15 2 -26 -14 -12 -14 -15 1 -31 15 -17 15 -18 -4 -16 -11 0
-18 5 -15 11 4 5 -1 7 -10 3 -14 -5 -15 -2 -6 20 5 14 8 27 7 28 -2 2 -18 0
-37 -3 l-34 -5 29 -11 28 -12 -27 -24 c-15 -13 -25 -30 -22 -38 3 -8 0 -12 -7
-9 -7 2 -13 13 -12 23 2 29 -58 28 -62 -1 -3 -20 -2 -20 12 -1 7 11 17 16 21
13 3 -4 3 -7 -2 -7 -4 0 -1 -8 6 -17 8 -9 9 -14 3 -10 -6 3 -11 0 -11 -8 0 -8
4 -12 9 -9 5 3 28 8 50 11 39 4 41 3 27 -13 -8 -10 -9 -15 -3 -11 7 4 14 -2
18 -16 4 -13 9 -18 13 -11 13 18 51 23 63 9 8 -10 5 -17 -12 -29 -26 -18 -21
-20 16 -6 30 11 32 4 10 -28 -14 -21 -14 -25 1 -48 20 -31 27 -64 14 -64 -6 0
-7 -5 -4 -10 8 -12 56 20 51 35 -4 14 22 37 34 30 14 -9 13 8 -2 23 -9 9 -8
12 5 12 23 0 21 16 -4 34 -24 17 -18 36 10 29 15 -4 18 0 14 21 -3 14 -9 26
-13 26 -5 0 -6 10 -2 22 4 17 2 20 -15 16 -12 -3 -20 0 -20 8 0 9 8 12 23 8
12 -3 25 -1 28 5 4 7 1 9 -8 5 -11 -4 -13 0 -9 15 3 12 1 21 -5 21 -6 0 -14 9
-17 20 -4 11 -11 17 -17 14 -6 -4 -14 0 -19 7 -14 23 -10 30 11 19 14 -7 20
-7 20 0 0 5 -7 10 -16 10 -10 0 -14 5 -10 15 5 13 2 14 -17 3 -12 -7 -28 -11
-34 -10 -7 2 -13 -2 -13 -8 0 -5 7 -10 15 -10 8 0 15 -7 15 -15 0 -8 -7 -15
-16 -15 -9 0 -14 -6 -11 -12 2 -7 9 -12 13 -11 5 1 23 4 39 8 23 5 26 4 15 -4
-13 -10 -13 -11 0 -11 13 0 13 -1 0 -10 -9 -6 -17 -5 -22 3 -6 9 -8 9 -8 0 0
-6 5 -15 10 -18 8 -5 7 -11 -1 -21 -8 -10 -8 -14 0 -14 6 0 11 -5 11 -11 0 -8
-5 -8 -15 1 -8 7 -15 23 -15 36 0 13 -3 23 -7 22 -28 -5 -38 15 -37 72 2 62 2
64 -9 54z m128 -134 c-3 -5 -14 -10 -23 -10 -15 0 -15 2 -2 10 20 13 33 13 25
0z m-102 -27 c-13 -8 -23 -21 -23 -27 0 -6 5 -4 10 4 6 9 12 11 17 5 5 -6 7
-9 4 -8 -2 1 -10 -4 -17 -12 -12 -11 -19 -11 -45 2 -23 12 -28 18 -18 24 8 5
15 4 17 -1 2 -6 9 -10 15 -10 5 0 7 3 3 7 -3 4 6 12 21 19 38 17 42 16 16 -3z
m-98 -13 c3 -5 -1 -10 -10 -10 -9 0 -13 5 -10 10 3 6 8 10 10 10 2 0 7 -4 10
-10z m52 -46 c-3 -3 -12 -4 -19 -1 -8 3 -5 6 6 6 11 1 17 -2 13 -5z m151 -19
c-3 -3 -9 2 -12 12 -6 14 -5 15 5 6 7 -7 10 -15 7 -18z m-25 -16 c-8 -8 -16
-8 -30 1 -16 10 -16 11 5 7 12 -3 22 0 22 6 0 6 3 7 7 4 4 -4 2 -12 -4 -18z
m-13 -39 c8 -5 11 -10 5 -10 -5 0 -17 5 -25 10 -8 5 -10 10 -5 10 6 0 17 -5
25 -10z m-20 -19 c0 -5 -7 -11 -14 -14 -10 -4 -13 -1 -9 9 6 15 23 19 23 5z"/>
<path d="M6316 1353 c-6 -14 -5 -15 5 -6 7 7 10 15 7 18 -3 3 -9 -2 -12 -12z"/>
<path d="M6306 1315 c-3 -8 -1 -15 3 -15 5 0 11 7 15 15 3 8 1 15 -3 15 -5 0
-11 -7 -15 -15z"/>
<path d="M6325 1280 c3 -5 8 -10 11 -10 2 0 4 5 4 10 0 6 -5 10 -11 10 -5 0
-7 -4 -4 -10z"/>
<path d="M5888 1223 c7 -3 16 -2 19 1 4 3 -2 6 -13 5 -11 0 -14 -3 -6 -6z"/>
<path d="M6160 1160 c-9 -6 -10 -10 -3 -10 6 0 15 5 18 10 8 12 4 12 -15 0z"/>
<path d="M4601 1054 c0 -11 3 -14 6 -6 3 7 2 16 -1 19 -3 4 -6 -2 -5 -13z"/>
<path d="M4603 1015 c0 -8 4 -12 9 -9 4 3 8 9 8 15 0 5 -4 9 -8 9 -5 0 -9 -7
-9 -15z"/>
<path d="M7320 986 c0 -2 7 -9 15 -16 13 -11 14 -10 9 4 -5 14 -24 23 -24 12z"/>
<path d="M6199 961 c12 -8 8 -13 -17 -28 -18 -10 -32 -21 -32 -25 0 -12 8 -10
37 9 25 17 26 17 19 -7 -6 -22 -5 -22 4 -7 7 10 9 25 6 33 -3 8 0 14 7 14 8 0
6 4 -3 10 -8 5 -19 10 -25 10 -5 0 -3 -4 4 -9z"/>
<path d="M2792 947 c-13 -16 -13 -40 4 -165 4 -34 2 -57 -8 -77 -15 -27 -15
-26 -22 50 -11 121 -65 213 -67 113 -2 -94 -6 -127 -16 -140 -6 -8 -7 -52 -2
-118 4 -57 5 -108 2 -113 -3 -5 -19 12 -36 37 -34 53 -50 55 -19 2 17 -29 20
-45 15 -92 -6 -52 -33 -130 -33 -95 0 8 -3 11 -7 8 -3 -4 -12 -2 -20 4 -11 9
-13 -1 -13 -58 0 -38 -3 -72 -6 -76 -11 -11 -34 5 -34 25 0 25 -24 18 -29 -8
-2 -10 -12 -31 -22 -46 -11 -14 -19 -31 -19 -36 0 -5 -7 -12 -15 -16 -21 -8
-19 -49 6 -90 11 -19 18 -40 14 -46 -4 -7 120 -10 389 -10 l396 0 -6 30 c-4
19 -2 30 5 30 6 0 11 -4 11 -10 0 -5 9 -10 20 -10 19 0 20 5 15 46 -4 33 -2
43 6 38 9 -5 10 2 6 25 -7 32 -52 101 -67 101 -14 0 -41 80 -95 278 -29 107
-60 201 -69 210 -15 15 -16 15 -16 -4 0 -17 7 -63 24 -149 8 -42 29 -114 62
-213 19 -56 34 -109 34 -118 0 -23 -18 -7 -40 36 -11 21 -26 44 -33 52 -8 7
-29 42 -47 76 -19 34 -37 62 -42 62 -4 0 -8 9 -8 19 0 11 -5 23 -12 27 -6 4
-8 3 -5 -3 3 -5 0 -31 -7 -59 l-12 -49 -13 35 c-6 19 -18 75 -26 124 -10 63
-20 94 -35 108 -11 10 -20 14 -20 8 0 -6 -5 -8 -10 -5 -8 5 -8 11 0 20 9 10 6
16 -9 25 -16 8 -21 21 -22 53 0 23 -8 73 -17 111 -15 60 -19 67 -30 53z m28
-427 c0 -11 -4 -20 -10 -20 -5 0 -10 9 -10 20 0 11 5 20 10 20 6 0 10 -9 10
-20z m267 -322 c-3 -8 -6 -5 -6 6 -1 11 2 17 5 13 3 -3 4 -12 1 -19z"/>
<path d="M4950 946 c0 -2 8 -10 18 -17 15 -13 16 -12 3 4 -13 16 -21 21 -21
13z"/>
<path d="M5348 843 c7 -3 16 -2 19 1 4 3 -2 6 -13 5 -11 0 -14 -3 -6 -6z"/>
<path d="M6100 840 c-8 -5 -12 -11 -9 -14 2 -3 11 -1 19 4 8 5 12 11 9 14 -2
3 -11 1 -19 -4z"/>
<path d="M6045 790 c-3 -5 1 -10 9 -10 9 0 16 5 16 10 0 6 -4 10 -9 10 -6 0
-13 -4 -16 -10z"/>
<path d="M5935 760 l-20 -9 20 0 c11 0 29 4 40 9 l20 9 -20 0 c-11 0 -29 -4
-40 -9z"/>
<path d="M4720 751 c0 -6 4 -13 10 -16 6 -3 7 1 4 9 -7 18 -14 21 -14 7z"/>
<path d="M2975 700 c3 -5 8 -10 11 -10 2 0 4 5 4 10 0 6 -5 10 -11 10 -5 0 -7
-4 -4 -10z"/>
<path d="M3311 524 c17 -45 20 -68 14 -118 -5 -54 -2 -73 25 -149 20 -53 37
-87 46 -87 19 0 18 2 -16 110 -35 110 -32 100 -21 100 5 0 12 -12 15 -26 7
-27 42 -71 51 -62 8 8 -40 137 -63 168 -12 16 -27 49 -34 74 -7 26 -18 46 -25
46 -9 0 -7 -15 8 -56z"/>
<path d="M6486 511 c-4 -7 -5 -15 -2 -18 9 -9 19 4 14 18 -4 11 -6 11 -12 0z"/>
<path d="M6365 477 c-14 -10 -23 -22 -20 -27 3 -4 -2 -10 -10 -14 -8 -3 -15
-13 -15 -21 0 -9 -4 -13 -10 -10 -5 3 -10 2 -10 -3 0 -13 -36 -22 -47 -12 -4
5 -21 6 -38 3 -26 -5 -27 -7 -10 -14 20 -7 20 -8 0 -8 -12 -1 -26 -6 -33 -13
-9 -9 -12 -9 -12 1 0 7 -5 11 -11 9 -6 -2 -9 -6 -7 -9 5 -10 -24 -39 -33 -33
-5 3 -9 -1 -9 -8 0 -7 12 -18 26 -25 21 -10 24 -10 14 2 -9 11 -7 16 9 24 25
14 41 14 41 1 0 -5 -7 -10 -15 -10 -23 0 -18 -16 5 -17 15 -1 20 4 20 23 0 13
5 24 11 24 5 0 7 -4 4 -10 -3 -5 -2 -10 4 -10 5 0 13 5 17 11 4 8 9 7 14 -2 6
-9 16 -4 39 18 16 17 32 26 34 20 2 -6 9 -7 16 -3 9 6 9 11 0 22 -10 12 -9 13
5 8 9 -3 16 -1 16 5 0 6 -5 11 -11 11 -5 0 -7 5 -4 10 10 16 35 11 35 -7 0
-15 1 -15 18 0 10 10 22 17 25 17 14 0 47 35 47 50 0 22 -73 20 -105 -3z"/>
<path d="M6801 481 c-7 -5 -9 -11 -4 -14 5 -3 15 -2 22 2 7 5 9 11 4 14 -5 3
-15 2 -22 -2z"/>
<path d="M301 290 c-19 -17 -21 -23 -11 -35 15 -18 70 -20 70 -2 0 27 -13 57
-24 57 -6 -1 -22 -10 -35 -20z"/>
<path d="M6047 303 c-5 -8 -22 -11 -47 -8 -24 3 -40 1 -40 -5 0 -5 -13 -10
-30 -10 -16 0 -30 -3 -30 -7 0 -5 -11 -13 -25 -20 -14 -6 -23 -7 -19 -2 3 5 0
9 -5 9 -6 0 -11 -5 -11 -11 0 -5 -4 -8 -9 -5 -13 8 -38 -3 -45 -19 -3 -9 0
-12 8 -9 8 3 20 -1 27 -9 15 -16 43 -6 66 23 10 13 12 13 18 -2 5 -13 18 -16
65 -14 62 3 102 22 78 38 -11 6 -10 10 0 17 8 4 12 17 10 27 -2 14 -6 15 -11
7z"/>
<path d="M6070 263 c0 -13 5 -23 10 -23 13 0 13 11 0 30 -8 12 -10 11 -10 -7z"/>
<path d="M5685 230 c-8 -13 -59 -19 -72 -8 -10 8 -13 5 -13 -10 0 -16 -4 -20
-16 -15 -14 5 -15 3 -5 -15 14 -26 15 -26 36 -5 14 14 18 14 26 2 5 -9 9 -10
9 -2 0 13 57 13 78 0 8 -5 12 -2 12 9 0 12 6 15 23 11 21 -6 21 -6 -3 13 -27
21 -68 31 -75 20z"/>
<path d="M4544 198 c1 -18 8 -24 31 -25 27 -2 28 -2 8 7 -13 5 -23 16 -23 25
0 8 -4 15 -9 15 -4 0 -8 -10 -7 -22z"/>
<path d="M6675 170 c3 -5 8 -10 11 -10 2 0 4 5 4 10 0 6 -5 10 -11 10 -5 0 -7
-4 -4 -10z"/>
<path d="M4300 161 c0 -5 5 -13 10 -16 6 -3 10 -2 10 4 0 5 -4 13 -10 16 -5 3
-10 2 -10 -4z"/>
<path d="M20 119 c0 -5 5 -7 10 -4 6 3 10 8 10 11 0 2 -4 4 -10 4 -5 0 -10 -5
-10 -11z"/>
<path d="M4290 124 c0 -3 7 -12 15 -20 13 -13 15 -13 15 -1 0 8 -7 17 -15 21
-8 3 -15 3 -15 0z"/>
<path d="M4662 110 c7 -11 16 -20 21 -20 4 0 5 -4 2 -10 -3 -5 -1 -10 4 -10
16 0 13 12 -8 38 -24 27 -36 29 -19 2z"/>
<path d="M7245 60 c-3 -5 -1 -10 4 -10 6 0 11 5 11 10 0 6 -2 10 -4 10 -3 0
-8 -4 -11 -10z"/>
<path d="M4700 51 c0 -6 5 -13 10 -16 6 -3 10 1 10 9 0 9 -4 16 -10 16 -5 0
-10 -4 -10 -9z"/>
<path d="M2330 36 c0 -8 -18 -18 -47 -24 l-48 -10 65 0 c36 0 79 3 95 7 l30 7
-32 17 c-39 21 -63 22 -63 3z"/>
<path d="M7240 30 c0 -5 5 -10 10 -10 6 0 10 5 10 10 0 6 -4 10 -10 10 -5 0
-10 -4 -10 -10z"/>
<path d="M7495 20 c-3 -5 -1 -10 4 -10 6 0 11 5 11 10 0 6 -2 10 -4 10 -3 0
-8 -4 -11 -10z"/>
<path d="M4728 3 c7 -3 16 -2 19 1 4 3 -2 6 -13 5 -11 0 -14 -3 -6 -6z"/>
</g>
</svg>
