<?xml version="1.0" standalone="no"?>
<!DOCTYPE svg PUBLIC "-//W3C//DTD SVG 20010904//EN"
 "http://www.w3.org/TR/2001/REC-SVG-20010904/DTD/svg10.dtd">
<svg version="1.0" xmlns="http://www.w3.org/2000/svg"
 width="512.000000pt" height="512.000000pt" viewBox="0 0 512.000000 512.000000"
 preserveAspectRatio="xMidYMid meet">
<metadata>
Created by potrace 1.14, written by Peter Selinger 2001-2017
</metadata>
<g transform="translate(0.000000,512.000000) scale(0.100000,-0.100000)"
fill="#000000" stroke="none">
<path d="M0 4811 c0 -238 3 -310 12 -314 10 -4 10 -6 1 -6 -10 -1 -13 -131
-13 -615 0 -551 2 -614 16 -620 31 -12 34 -5 34 84 l0 90 35 0 c31 0 35 -3 40
-34 4 -19 5 -61 3 -95 -3 -53 -1 -61 17 -65 10 -3 20 -4 22 -3 1 2 3 40 4 86
l1 82 27 -3 c19 -2 26 -9 27 -24 1 -12 4 -49 8 -83 7 -59 6 -61 -16 -62 -13
-1 4 -7 37 -13 33 -7 63 -11 67 -9 5 3 8 28 9 56 0 29 3 45 6 37 3 -8 14 -32
24 -53 11 -21 17 -42 14 -47 -5 -8 69 -27 168 -46 39 -7 46 -15 61 -76 6 -26
4 -28 -24 -28 -16 0 -105 16 -197 35 -215 46 -362 75 -374 75 -5 0 -9 -200 -9
-500 0 -327 3 -500 10 -500 6 0 10 42 10 105 l0 105 44 0 44 0 7 -97 c9 -131
13 -138 14 -22 1 106 10 125 55 113 26 -6 26 -7 26 -104 0 -55 4 -101 9 -104
5 -3 12 40 16 95 l7 100 26 -3 27 -3 0 -95 c0 -82 2 -95 17 -98 16 -3 18 6 18
92 0 96 0 96 25 96 25 0 25 0 25 -95 0 -86 2 -95 19 -95 20 0 31 49 31 142 0
41 3 51 20 55 12 3 20 14 21 27 2 39 17 -24 18 -75 l1 -46 138 -6 c110 -6 139
-10 149 -23 9 -12 9 -22 2 -36 -11 -21 3 -48 26 -48 7 0 15 -9 18 -20 3 -11
13 -20 22 -20 13 0 16 -8 13 -43 l-3 -42 -428 -3 -427 -2 2 -322 3 -322 24 -6
24 -5 -2 -134 c-2 -118 0 -134 16 -147 16 -12 16 -13 1 -14 -17 0 -18 -5 -32
-177 -3 -33 0 -43 11 -43 10 0 12 -6 8 -21 -5 -15 -4 -19 4 -15 6 4 11 2 11
-3 0 -6 8 -11 19 -11 13 0 20 9 25 30 4 23 11 30 28 30 19 0 20 -2 8 -10 -10
-6 -11 -10 -2 -10 16 0 16 -47 0 -53 -26 -11 28 -7 111 8 47 9 101 18 119 21
31 5 32 7 32 49 0 25 3 45 8 45 4 0 7 113 8 251 1 265 4 281 46 258 17 -9 19
-23 18 -127 -1 -147 -2 -138 12 -124 7 7 20 12 30 12 13 0 18 -8 18 -30 0 -28
-3 -30 -36 -30 l-36 0 4 -100 c1 -55 6 -100 10 -100 4 0 9 44 10 98 2 74 5 92
13 75 6 -12 15 -21 20 -20 6 1 11 -27 13 -64 3 -60 1 -67 -20 -77 l-23 -11 23
0 c17 -1 22 -7 23 -28 1 -16 1 -31 0 -36 0 -4 7 -7 17 -7 18 0 46 55 36 71 -3
5 4 9 16 9 12 0 18 -4 15 -10 -3 -6 1 -7 9 -4 9 3 13 10 10 15 -3 5 15 9 39 9
42 0 133 29 95 30 -17 0 -18 17 -17 213 0 116 4 230 8 252 5 22 9 34 10 28 2
-20 21 -15 22 5 0 14 2 14 9 -3 8 -20 4 -440 -5 -482 -4 -15 -1 -23 9 -23 14
0 17 39 32 388 4 91 11 152 17 152 10 0 4 -479 -7 -546 -6 -42 6 -59 32 -45
24 13 55 15 35 3 -6 -4 28 -5 75 -3 48 1 85 1 82 -2 -3 -3 -86 -17 -185 -32
-99 -14 -342 -51 -540 -83 l-360 -57 -3 -362 -2 -363 515 0 c526 0 540 1 506
35 -18 18 -16 60 5 130 12 39 29 111 38 160 10 50 35 167 56 260 21 94 50 251
65 350 34 238 35 243 121 591 58 238 87 332 134 447 32 80 68 164 79 185 11
22 45 113 75 202 31 90 74 195 96 234 22 39 60 113 85 164 57 119 126 193 235
252 72 39 79 45 68 60 -7 10 -84 98 -171 196 -87 97 -170 197 -184 221 l-26
44 43 242 c23 133 53 296 67 362 23 115 42 215 78 409 19 105 35 133 153 262
l87 97 5 108 5 109 -361 0 -361 0 -6 -67 c-4 -38 -7 -122 -7 -188 l0 -120 31
-18 c18 -10 30 -20 27 -22 -2 -3 -45 17 -94 43 l-89 47 -5 165 -5 165 -8 -130
c-4 -71 -10 -152 -12 -180 -2 -27 -4 -62 -5 -77 0 -19 -5 -28 -16 -28 -9 0
-87 40 -173 89 -86 49 -246 137 -356 196 -110 59 -204 111 -209 116 -6 5 -117
9 -248 9 l-238 0 0 -309z m1418 -113 c39 -21 42 -25 42 -64 0 -53 -14 -63 -37
-28 l-17 27 -7 -24 c-4 -13 -7 -75 -8 -137 l-1 -112 -51 -99 c-37 -70 -53
-114 -57 -152 -4 -44 -7 -49 -13 -29 -9 31 -11 662 -3 684 5 14 14 12 58 -14
28 -17 70 -41 94 -52z m-941 -2270 c-3 -7 -5 -2 -5 12 0 14 2 19 5 13 2 -7 2
-19 0 -25z m53 -93 c0 -8 -4 -15 -10 -15 -5 0 -7 7 -4 15 4 8 8 15 10 15 2 0
4 -7 4 -15z m10 -979 c0 -62 -14 -65 -18 -5 -2 29 1 49 7 49 6 0 11 -20 11
-44z m-191 -201 c-1 -58 -7 -109 -12 -112 -7 -4 -8 21 -4 72 4 43 7 93 7 112
0 18 2 33 5 33 3 0 5 -47 4 -105z m-51 -36 c-3 -33 -13 -47 -21 -26 -5 13 9
57 18 57 3 0 4 -14 3 -31z m392 21 c0 -5 -5 -10 -11 -10 -5 0 -7 5 -4 10 3 6
8 10 11 10 2 0 4 -4 4 -10z m-140 -50 c0 -5 -5 -10 -11 -10 -5 0 -7 5 -4 10 3
6 8 10 11 10 2 0 4 -4 4 -10z m-201 -67 c0 -5 -4 -17 -9 -28 -8 -18 -9 -17 -9
8 -1 15 4 27 9 27 6 0 10 -3 9 -7z m-59 -83 c0 -27 -4 -50 -10 -50 -5 0 -8 10
-6 23 3 12 5 34 5 50 2 48 11 29 11 -23z m50 -5 c0 -19 -5 -35 -11 -35 -6 0
-8 13 -5 33 5 38 5 37 11 37 3 0 5 -16 5 -35z m18 -52 c-19 -5 -25 -23 -8 -23
6 0 10 -11 10 -25 0 -20 -5 -25 -25 -25 -28 0 -28 0 -15 34 6 18 6 26 -1 26
-6 0 -7 5 -4 10 3 6 18 9 33 9 17 -1 21 -3 10 -6z"/>
<path d="M715 5094 c37 -23 190 -104 198 -104 2 0 4 29 4 65 l0 65 -121 0
-121 -1 40 -25z"/>
<path d="M2150 5040 c0 -47 4 -80 10 -80 9 0 14 15 11 34 -1 4 2 13 7 20 5 6
10 32 10 59 0 40 -3 47 -19 47 -17 0 -19 -8 -19 -80z"/>
<path d="M4176 4813 c10 -344 7 -1863 -4 -2188 l-7 -210 -65 -5 c-62 -5 -65
-6 -68 -32 -3 -27 -1 -28 37 -28 42 0 58 -21 25 -34 -25 -9 -54 -7 -54 5 0 5
-5 7 -10 4 -6 -4 -7 -11 -4 -17 5 -7 2 -8 -5 -4 -7 5 -10 14 -7 22 3 8 1 14
-5 14 -6 0 -7 5 -4 10 10 16 -1 11 -16 -7 -10 -11 -10 -14 -1 -9 8 5 12 1 12
-13 0 -11 -5 -23 -10 -26 -7 -4 -6 -13 1 -27 8 -15 8 -19 0 -13 -8 5 -10 -2
-5 -22 4 -15 8 -30 10 -32 2 -2 -1 -10 -7 -17 -7 -9 -6 -19 5 -36 8 -13 38
-102 66 -198 28 -96 74 -242 101 -325 l50 -150 -45 -95 c-24 -52 -58 -136 -74
-185 -56 -168 -103 -251 -204 -364 -34 -36 -40 -40 -63 -31 -39 15 -45 13 -45
-15 0 -28 21 -42 70 -45 55 -4 70 -1 70 15 0 9 10 19 23 24 41 16 132 40 176
47 67 11 48 -15 -29 -38 -36 -11 -69 -24 -74 -29 -13 -12 95 -12 127 0 21 8
26 6 31 -12 3 -12 6 -39 6 -59 l0 -38 -195 0 c-142 0 -195 -3 -195 -12 0 -13
30 -186 36 -207 4 -11 8 -10 23 3 11 10 63 30 117 46 54 16 100 33 102 39 10
30 40 53 72 54 l35 2 0 -80 0 -79 -105 -17 c-58 -10 -130 -18 -160 -19 -103
-2 -20 -18 125 -23 l140 -5 3 -36 3 -36 -169 0 c-157 0 -170 -1 -167 -17 2
-10 11 -69 21 -130 l17 -113 143 0 c89 0 144 -4 144 -10 0 -6 38 -10 94 -10
l95 0 4 28 4 27 2 -28 c0 -16 5 -25 11 -22 18 11 319 15 325 5 4 -6 89 -10
211 -10 l204 0 0 1790 c0 1584 -2 1790 -15 1790 -13 0 -15 27 -15 185 0 156 2
187 15 191 8 4 15 13 15 21 0 10 -6 13 -15 9 -9 -3 -18 1 -21 9 -7 18 14 85
27 85 5 0 9 14 9 30 0 29 -1 30 -48 30 -44 0 -49 -2 -48 -22 1 -36 -54 -37
-99 -3 l-35 27 -10 -26 c-8 -21 -16 -26 -45 -26 -25 0 -38 5 -42 18 -9 23 -23
32 -55 32 -19 0 -26 -4 -22 -13 7 -19 -20 -39 -48 -35 -15 2 -22 9 -20 20 4
23 -17 27 -155 32 l-113 5 0 -62 0 -62 113 7 c162 11 476 14 518 5 32 -7 38
-12 44 -45 11 -55 6 -413 -6 -428 -7 -8 -6 -13 3 -16 16 -6 -88 -58 -245 -124
l-117 -49 6 -151 7 -152 -24 -14 c-23 -14 -174 -108 -211 -131 -14 -9 -21 -6
-38 16 -47 60 -48 56 -52 -385 -2 -227 -1 -417 3 -422 4 -4 12 1 18 12 15 29
38 34 73 16 28 -15 31 -14 54 7 19 18 26 20 38 10 8 -7 25 -11 38 -9 17 2 23
-2 23 -17 0 -13 -8 -21 -22 -23 -12 -2 -25 -12 -28 -23 -4 -11 -15 -19 -30
-19 -14 0 -25 -7 -28 -19 -2 -10 -17 -21 -33 -24 -30 -6 -54 6 -35 17 16 10
13 33 -4 40 -8 3 -29 3 -45 -1 l-30 -5 0 -183 c0 -178 1 -183 20 -178 27 7 27
-23 0 -39 -28 -18 -26 -40 3 -29 12 5 47 12 77 16 54 7 55 7 38 -12 -10 -10
-45 -34 -78 -53 -61 -34 -74 -54 -42 -64 9 -3 64 -8 120 -12 57 -4 98 -10 92
-14 -10 -6 -9 -9 0 -12 9 -3 10 -14 5 -37 l-7 -34 -114 6 -114 6 -1 -167 c-1
-102 -5 -151 -9 -127 -4 24 -7 -21 -7 -110 l1 -150 6 110 6 110 2 -145 c2
-125 5 -143 16 -127 28 37 205 81 251 63 29 -11 -1 -34 -53 -42 -52 -7 -91
-23 -59 -24 10 0 16 -4 13 -9 -7 -10 31 -20 84 -22 73 -2 90 -9 90 -35 0 -22
-4 -24 -57 -26 -47 -1 -50 -2 -19 -5 29 -3 36 -7 25 -14 -10 -6 -5 -9 18 -9
32 0 33 -1 31 -40 l-1 -40 -107 0 c-59 0 -135 -3 -169 -6 l-61 -7 0 -53 0 -54
38 0 c20 0 73 7 117 16 44 9 98 20 119 24 22 4 46 6 53 3 17 -7 17 -37 -2 -72
-11 -23 -25 -31 -67 -41 -29 -6 -82 -20 -118 -30 -36 -10 -82 -21 -102 -24
-37 -5 -37 -4 -42 37 -3 23 -7 135 -8 249 -2 115 -6 208 -10 208 -4 0 -8 278
-8 618 0 339 -2 732 -5 872 -3 140 -8 812 -11 1493 l-6 1237 -75 0 -75 0 8
-307z m371 -700 c2 -6 -13 -12 -37 -15 -28 -2 -40 0 -40 9 0 9 8 11 25 7 16
-4 25 -2 25 6 0 14 22 8 27 -7z m-532 -1833 c3 -6 -1 -7 -9 -4 -18 7 -21 14
-7 14 6 0 13 -4 16 -10z m649 -169 c3 -4 3 -11 0 -14 -8 -8 -34 3 -34 14 0 11
27 12 34 0z m-250 -126 c22 -17 14 -48 -11 -43 -11 2 -19 14 -21 31 -4 30 4
33 32 12z m291 -305 c8 -12 -131 -12 -160 0 -13 6 9 9 67 9 48 1 90 -3 93 -9z
m5 -185 c0 -41 -2 -45 -25 -45 -25 0 -35 15 -14 22 6 2 13 16 14 31 2 15 -1
25 -5 22 -5 -3 -11 -1 -15 5 -4 6 5 10 19 10 24 0 26 -3 26 -45z m-2 -1177 l3
-38 -174 0 c-188 0 -183 -2 -172 55 4 19 12 20 172 20 l168 0 3 -37z m-341
-225 c-3 -10 -5 -4 -5 12 0 17 2 24 5 18 2 -7 2 -21 0 -30z m-20 -25 c-2 -13
-4 -5 -4 17 -1 22 1 32 4 23 2 -10 2 -28 0 -40z"/>
<path d="M2211 5074 c0 -11 3 -14 6 -6 3 7 2 16 -1 19 -3 4 -6 -2 -5 -13z"/>
<path d="M2365 4937 c-181 -68 -415 -232 -446 -314 -16 -42 -60 -322 -54 -346
10 -38 -24 -276 -54 -382 -96 -337 -100 -356 -89 -380 6 -13 56 -61 112 -107
55 -45 155 -132 221 -191 66 -60 145 -126 175 -147 42 -28 73 -64 125 -140 42
-61 71 -96 73 -86 2 9 8 16 13 16 5 0 9 5 9 11 0 5 -4 8 -9 4 -5 -3 -12 -1
-16 5 -4 6 -10 8 -14 5 -5 -2 -20 13 -34 34 -21 32 -23 40 -11 45 8 3 13 11
12 18 -2 9 8 12 32 10 26 -2 31 0 20 7 -13 9 -13 11 3 11 9 0 17 -4 17 -8 0
-5 15 -15 33 -24 31 -15 34 -15 45 2 9 14 8 19 -4 24 -30 11 -59 116 -32 116
6 0 26 11 45 26 l33 25 0 -23 0 -23 23 25 c20 21 22 30 16 80 -10 76 -11 152
-1 147 4 -2 25 17 47 42 22 24 34 41 28 37 -21 -12 -15 8 12 36 16 18 20 28
12 31 -7 3 -4 6 5 6 10 1 17 7 15 14 -1 7 8 11 26 10 15 -1 27 3 27 8 0 6 -6
7 -12 3 -7 -4 -5 2 5 13 32 37 17 32 -45 -15 -35 -26 -99 -64 -144 -85 l-81
-38 -124 76 c-136 83 -183 128 -201 189 -25 91 -50 162 -65 185 -14 22 -14 24
1 18 18 -7 21 4 6 19 -7 7 -5 17 5 30 8 10 15 14 15 7 0 -7 7 -10 15 -7 8 4
15 1 15 -5 0 -6 7 -11 15 -11 9 0 12 -6 9 -15 -4 -8 -1 -15 5 -15 6 0 11 5 11
11 0 8 4 8 15 -1 8 -6 23 -9 35 -5 25 8 27 -10 3 -24 -10 -6 -13 -10 -8 -11 6
0 16 4 23 9 19 12 9 101 -13 117 -12 9 -13 13 -3 16 10 4 10 8 2 19 -6 8 -15
25 -19 39 -4 17 1 13 18 -15 14 -22 34 -41 44 -41 10 -1 27 -5 38 -10 19 -7
20 -7 2 13 l-18 21 42 -14 c30 -11 44 -12 49 -4 4 6 11 10 16 9 5 -1 17 -1 27
0 17 1 17 2 0 29 l-17 27 22 -19 c26 -23 29 -11 5 18 -17 18 -15 18 14 -2 42
-30 45 -28 28 16 -8 20 -16 58 -19 85 -6 67 18 62 39 -8 9 -31 24 -64 35 -75
18 -18 18 -20 2 -29 -9 -6 -13 -11 -9 -11 4 0 3 -9 -3 -20 -14 -26 -5 -25 28
1 l27 21 6 -32 c4 -18 14 -39 22 -48 14 -14 15 -13 10 6 -6 24 6 29 25 10 10
-10 17 -10 32 0 24 15 26 0 4 -22 -8 -9 -11 -16 -6 -16 21 0 44 52 40 91 -5
58 35 48 44 -11 3 -24 4 -24 23 10 l20 35 3 -28 c5 -39 -36 -215 -59 -257
l-20 -35 28 31 c15 17 33 39 40 50 10 16 11 14 6 -16 -3 -19 -11 -52 -18 -72
-15 -45 -11 -49 9 -10 l15 27 1 -40 c0 -23 -10 -59 -23 -85 -13 -25 -22 -56
-21 -70 1 -14 -1 -29 -4 -35 -4 -5 -7 -16 -8 -23 -1 -7 -11 -31 -22 -53 -12
-24 -14 -35 -6 -28 7 6 27 37 43 69 l29 59 5 -77 c6 -101 -17 -188 -51 -197
-13 -3 -32 -3 -43 0 -14 5 -17 2 -13 -8 7 -19 50 -38 69 -31 25 10 17 -16 -15
-48 -26 -26 -36 -30 -75 -26 l-44 3 27 -28 c35 -36 61 -42 107 -23 29 12 41
13 52 5 11 -10 9 -15 -14 -30 -17 -12 -22 -19 -13 -19 9 0 22 6 30 13 8 6 6 2
-4 -10 -10 -13 -22 -21 -25 -18 -4 2 -8 -6 -8 -17 -3 -36 143 117 307 321 81
100 154 194 161 208 11 20 10 31 -5 71 -10 26 -61 166 -112 311 -105 296 -167
434 -252 560 -62 93 -205 244 -292 309 -68 50 -170 112 -184 111 -6 0 -38 -10
-71 -22z m315 -652 c24 -15 7 -26 -40 -24 l-50 3 0 64 0 64 40 -50 c21 -28 44
-53 50 -57z m-160 20 c0 -25 -4 -45 -10 -45 -11 0 -14 49 -4 74 10 26 14 18
14 -29z m-348 -122 c-23 -19 -25 -10 -16 64 l8 68 11 -60 c10 -51 10 -62 -3
-72z m589 31 c33 -19 59 -37 59 -39 0 -2 3 -11 6 -20 6 -14 -3 -15 -82 -9 -54
3 -99 2 -115 -4 -24 -9 -28 -8 -33 11 -3 12 -6 39 -6 60 l0 37 56 0 c47 0 66
-6 115 -36z m-571 -61 c0 -10 11 -42 25 -71 14 -30 25 -56 25 -58 0 -9 -75 1
-82 11 -12 16 -9 110 4 123 17 17 28 15 28 -5z m857 -44 c-9 -5 -24 -26 -32
-45 -22 -53 2 -94 49 -85 5 1 12 -3 16 -10 5 -8 13 -3 25 15 18 27 35 26 35
-2 0 -50 -150 -209 -158 -168 -2 9 11 28 28 42 17 15 38 40 46 58 16 30 15 29
-28 -11 -24 -24 -47 -43 -51 -43 -4 0 -7 34 -7 76 0 103 35 184 80 184 12 -1
11 -3 -3 -11z m-946 -112 c-14 -14 -17 -10 -26 33 l-7 35 22 -28 c17 -21 20
-31 11 -40z m959 -3 c0 -13 -31 0 -40 17 -11 20 -11 20 14 4 14 -10 26 -19 26
-21z m-803 -881 c12 -18 13 -27 4 -36 -8 -8 -11 -8 -11 1 0 7 -6 12 -13 12
-11 0 -37 39 -37 55 0 12 44 -12 57 -32z m248 -113 c3 -5 1 -10 -4 -10 -6 0
-11 5 -11 10 0 6 2 10 4 10 3 0 8 -4 11 -10z"/>
<path d="M5094 4476 c-3 -8 1 -27 10 -43 l15 -28 1 43 c0 41 -15 57 -26 28z"/>
<path d="M3500 4148 c0 -4 12 -38 26 -75 56 -145 114 -329 114 -358 -1 -27
-11 -62 -35 -117 -6 -16 -2 -18 31 -17 31 2 33 3 12 6 -41 6 -34 20 7 15 24
-3 35 0 35 9 0 10 3 10 12 1 20 -20 48 4 48 43 0 19 4 35 8 35 5 0 7 -13 4
-29 -5 -38 25 -57 69 -42 16 5 30 7 30 3 1 -4 4 8 8 27 8 47 31 53 31 9 0 -42
9 -53 40 -55 14 -1 44 -5 66 -11 23 -5 67 -7 98 -4 l56 4 0 279 0 278 -330 3
c-182 2 -330 0 -330 -4z"/>
<path d="M2215 3890 c3 -5 11 -10 16 -10 6 0 7 5 4 10 -3 6 -11 10 -16 10 -6
0 -7 -4 -4 -10z"/>
<path d="M4565 3740 c-4 -6 19 -10 62 -9 47 0 62 3 48 9 -28 12 -103 12 -110
0z"/>
<path d="M3882 3660 c0 -14 2 -19 5 -12 2 6 2 18 0 25 -3 6 -5 1 -5 -13z"/>
<path d="M3557 3508 c-46 -61 -127 -198 -127 -213 0 -9 8 -27 17 -41 14 -21
14 -30 4 -46 -19 -30 -5 -50 68 -95 97 -61 151 -112 212 -200 l54 -78 54 -2
c30 -2 59 -7 65 -13 5 -5 18 -10 28 -10 11 0 20 -10 24 -27 3 -16 8 -35 10
-43 2 -8 4 -70 6 -137 1 -68 6 -123 10 -123 4 0 8 69 8 154 0 113 3 156 13
164 7 6 45 12 85 14 l72 2 0 363 0 363 -289 0 -290 0 -24 -32z m452 -160 c15
-37 -32 -62 -69 -38 -13 9 -10 14 15 35 37 31 43 31 54 3z"/>
<path d="M2710 3480 c-9 -6 -10 -10 -3 -10 6 0 15 5 18 10 8 12 4 12 -15 0z"/>
<path d="M3239 3159 c-98 -34 -131 -51 -117 -62 9 -6 7 -7 -8 -4 -13 3 -21 -1
-21 -10 0 -9 6 -11 16 -7 9 4 26 7 38 7 14 -1 20 3 16 10 -3 6 -1 7 5 3 10 -6
97 33 140 62 29 19 -15 20 -69 1z"/>
<path d="M2769 3023 c-13 -16 -12 -17 4 -4 16 13 21 21 13 21 -2 0 -10 -8 -17
-17z"/>
<path d="M2256 2880 c-3 -22 -27 -111 -52 -197 -66 -230 -93 -348 -100 -439
-8 -98 13 -313 32 -332 8 -7 14 -22 14 -32 0 -24 20 -36 31 -19 13 21 11 69
-4 75 -10 4 -14 38 -15 137 -3 181 33 408 108 685 l21 79 40 0 c21 0 39 -4 39
-8 0 -5 9 -9 20 -9 11 0 20 5 20 10 0 6 -7 10 -15 10 -9 0 -35 18 -59 40 -55
51 -72 51 -80 0z"/>
<path d="M2620 2746 c0 -3 9 -10 20 -16 11 -6 20 -8 20 -6 0 3 -9 10 -20 16
-11 6 -20 8 -20 6z"/>
<path d="M2440 2530 c-1 -8 -3 -23 -5 -32 -5 -25 7 -22 35 7 13 14 18 25 12
25 -7 0 -12 -5 -12 -12 0 -6 -7 -3 -15 8 -11 15 -15 16 -15 4z"/>
<path d="M3973 2392 c-9 -15 -7 -18 7 -19 10 -1 17 4 16 12 -3 23 -11 25 -23
7z"/>
<path d="M2388 2317 c-23 -43 -22 -179 1 -282 12 -52 20 -98 18 -102 -3 -5 1
-19 9 -33 7 -14 13 -19 14 -11 0 11 3 11 16 0 15 -12 16 -10 10 21 -7 33 -6
34 9 16 19 -25 20 -7 0 20 -8 12 -19 50 -24 85 -13 75 -15 239 -3 239 4 0 18
-7 30 -16 34 -24 26 -9 -23 40 -44 45 -45 45 -57 23z"/>
<path d="M1692 2210 c0 -14 2 -19 5 -12 2 6 2 18 0 25 -3 6 -5 1 -5 -13z"/>
<path d="M3291 2195 c-1 -17 -3 -18 -12 -5 -9 12 -10 11 -4 -5 3 -11 11 -41
17 -67 10 -42 15 -48 36 -48 l25 0 -21 23 c-12 13 -22 34 -23 48 -1 13 -5 35
-9 49 -7 21 -8 22 -9 5z"/>
<path d="M1660 2161 c0 -5 7 -14 15 -21 12 -10 15 -10 15 3 0 8 -7 17 -15 21
-8 3 -15 2 -15 -3z"/>
<path d="M1652 2098 c0 -7 -3 -125 -5 -263 -3 -269 5 -276 23 -20 13 178 11
287 -6 292 -6 2 -11 -2 -12 -9z"/>
<path d="M3496 1944 c4 -10 13 -27 19 -36 11 -16 14 -15 39 10 l26 29 -30 -5
c-17 -2 -37 1 -45 8 -13 11 -14 10 -9 -6z"/>
<path d="M1385 1790 c3 -5 8 -10 11 -10 2 0 4 5 4 10 0 6 -5 10 -11 10 -5 0
-7 -4 -4 -10z"/>
<path d="M3564 1735 c3 -9 6 -21 6 -26 0 -6 5 -7 11 -4 20 13 76 -6 138 -46
70 -46 161 -67 180 -42 4 4 5 7 3 6 -6 -3 -106 28 -139 43 -17 8 -36 14 -42
14 -14 0 -94 40 -101 50 -3 4 -18 10 -34 14 -24 6 -27 4 -22 -9z"/>
<path d="M3580 1677 c0 -7 4 -18 9 -25 6 -11 9 -9 14 7 3 12 -1 22 -9 25 -8 3
-14 0 -14 -7z"/>
<path d="M2600 1566 c0 -2 8 -10 18 -17 15 -13 16 -12 3 4 -13 16 -21 21 -21
13z"/>
<path d="M2730 1428 c100 -103 105 -110 117 -169 7 -34 26 -91 43 -126 33 -71
35 -77 20 -68 -5 3 -2 -11 6 -32 20 -48 28 -56 19 -20 -10 40 1 33 32 -20 15
-27 45 -73 68 -103 68 -90 118 -167 200 -310 42 -74 84 -143 93 -152 21 -25
41 -22 46 4 23 105 62 254 68 256 5 2 5 16 2 30 -6 25 -5 25 8 9 13 -17 14
-16 16 13 2 19 -2 29 -8 25 -13 -8 -13 5 0 25 8 13 10 12 12 -5 3 -35 7 -108
10 -189 2 -48 8 -81 15 -83 6 -2 13 4 16 14 2 11 7 2 12 -22 4 -22 12 -47 16
-55 10 -16 7 14 -16 205 -18 141 -19 175 -4 175 5 0 7 -4 4 -10 -3 -5 0 -29 6
-52 7 -24 12 -49 10 -55 -1 -7 5 -13 14 -13 9 0 19 -10 23 -21 8 -20 9 -20 25
-4 9 9 17 30 17 46 0 16 9 48 20 69 20 39 22 40 63 35 32 -4 20 3 -53 30 -171
63 -204 77 -297 127 -96 51 -122 71 -55 42 20 -9 46 -18 57 -21 72 -19 289
-100 334 -124 29 -17 55 -29 57 -27 7 8 -99 70 -188 109 -130 57 -159 67 -273
94 -162 39 -259 66 -272 77 -7 6 -13 18 -13 27 0 10 -37 53 -82 96 -46 43
-130 124 -188 179 l-105 101 105 -107z m795 -578 c3 -5 1 -10 -4 -10 -6 0 -11
5 -11 10 0 6 2 10 4 10 3 0 8 -4 11 -10z m-15 -234 c0 -26 -6 -18 -14 19 -5
22 -4 26 4 15 5 -8 10 -24 10 -34z"/>
<path d="M1630 1459 c0 -13 -7 -103 -15 -199 -8 -96 -15 -183 -15 -193 0 -10
-4 -16 -9 -12 -19 11 -20 -14 -2 -36 l19 -24 5 35 c9 57 28 443 22 448 -3 3
-5 -6 -5 -19z"/>
<path d="M2916 1427 c3 -10 9 -15 12 -12 3 3 0 11 -7 18 -10 9 -11 8 -5 -6z"/>
<path d="M3085 1170 c-3 -6 1 -7 9 -4 18 7 21 14 7 14 -6 0 -13 -4 -16 -10z"/>
<path d="M3946 1120 c-19 -6 -19 -7 -1 -13 20 -8 29 -4 24 11 -2 5 -13 6 -23
2z"/>
<path d="M525 1040 c-3 -5 -1 -10 4 -10 6 0 11 5 11 10 0 6 -2 10 -4 10 -3 0
-8 -4 -11 -10z"/>
<path d="M3920 1035 c-7 -8 -21 -15 -31 -15 -24 0 -39 -29 -46 -92 l-6 -52 21
20 c11 10 24 32 27 47 5 18 11 25 17 19 5 -5 -1 -28 -17 -57 -14 -27 -23 -50
-20 -53 3 -3 -1 -12 -7 -21 -7 -9 0 -5 14 8 15 13 25 28 22 33 -3 4 17 41 43
81 68 100 66 95 38 93 -14 0 -25 -6 -25 -12 0 -6 -7 -18 -17 -25 -15 -13 -15
-12 -4 9 15 28 9 39 -9 17z m-45 -75 c3 -5 1 -10 -4 -10 -6 0 -11 5 -11 10 0
6 2 10 4 10 3 0 8 -4 11 -10z"/>
<path d="M1592 959 c-7 -11 -17 -67 -22 -122 -10 -108 -24 -210 -39 -280 -5
-23 -12 -78 -15 -122 -3 -44 -9 -99 -12 -123 -6 -41 10 -125 28 -148 6 -8 -16
-34 -67 -80 -41 -37 -75 -71 -75 -76 0 -4 37 -8 83 -8 l83 0 17 223 c19 243
42 728 36 746 -2 6 -10 2 -17 -10z"/>
<path d="M83 763 c9 -2 23 -2 30 0 6 3 -1 5 -18 5 -16 0 -22 -2 -12 -5z"/>
<path d="M4465 740 c-60 -6 -53 -7 54 -8 68 -1 122 0 120 2 -9 8 -109 11 -174
6z"/>
<path d="M1826 494 c-5 -14 -4 -15 9 -4 17 14 19 20 6 20 -5 0 -12 -7 -15 -16z"/>
<path d="M2896 496 c21 -15 30 -14 19 3 -3 6 -14 11 -23 11 -13 0 -13 -2 4
-14z"/>
<path d="M2985 370 c25 -47 78 -149 118 -227 39 -79 77 -143 84 -143 20 0 -1
42 -174 345 -55 97 -78 118 -28 25z"/>
<path d="M3831 394 c0 -11 3 -14 6 -6 3 7 2 16 -1 19 -3 4 -6 -2 -5 -13z"/>
<path d="M1700 283 c0 -21 3 -24 9 -14 5 8 7 20 4 28 -8 21 -13 15 -13 -14z"/>
<path d="M1637 148 c-21 -23 -37 -148 -18 -148 6 0 11 13 11 28 0 15 6 52 14
82 8 30 14 55 13 56 -1 0 -10 -8 -20 -18z"/>
</g>
</svg>
